solid OpenSCAD_Model
  facet normal -1 0 0
    outer loop
      vertex 11 0 57.8
      vertex 11 10 56
      vertex 11 0 56
    endloop
  endfacet
  facet normal -1 0 0
    outer loop
      vertex 11 10 56
      vertex 11 0 57.8
      vertex 11 10 58
    endloop
  endfacet
  facet normal -1 0 0
    outer loop
      vertex 11 -2 58
      vertex 11 0 57.8
      vertex 11 -2 57.8
    endloop
  endfacet
  facet normal -1 0 0
    outer loop
      vertex 11 0 57.8
      vertex 11 -2 58
      vertex 11 10 58
    endloop
  endfacet
  facet normal 0 0 1
    outer loop
      vertex 21 10 58
      vertex 17.9696 8.3473 58
      vertex 18 8 58
    endloop
  endfacet
  facet normal 0 0 1
    outer loop
      vertex 21 10 58
      vertex 17.8794 8.68404 58
      vertex 17.9696 8.3473 58
    endloop
  endfacet
  facet normal 0 0 1
    outer loop
      vertex 21 10 58
      vertex 17.732 9 58
      vertex 17.8794 8.68404 58
    endloop
  endfacet
  facet normal 0 0 1
    outer loop
      vertex 19 12 58
      vertex 17.5321 9.28557 58
      vertex 17.732 9 58
    endloop
  endfacet
  facet normal 0 0 1
    outer loop
      vertex 19 12 58
      vertex 17.2856 9.53209 58
      vertex 17.5321 9.28557 58
    endloop
  endfacet
  facet normal 0 0 1
    outer loop
      vertex 19 12 58
      vertex 17 9.73205 58
      vertex 17.2856 9.53209 58
    endloop
  endfacet
  facet normal 0 0 1
    outer loop
      vertex 19 12 58
      vertex 16.684 9.87938 58
      vertex 17 9.73205 58
    endloop
  endfacet
  facet normal 0 0 1
    outer loop
      vertex 19 12 58
      vertex 16.3473 9.96961 58
      vertex 16.684 9.87938 58
    endloop
  endfacet
  facet normal 0 0 1
    outer loop
      vertex 19 12 58
      vertex 16 10 58
      vertex 16.3473 9.96961 58
    endloop
  endfacet
  facet normal -0 0 1
    outer loop
      vertex 13 12 58
      vertex 16 10 58
      vertex 19 12 58
    endloop
  endfacet
  facet normal 0 0 1
    outer loop
      vertex 16 10 58
      vertex 13 12 58
      vertex 15.6527 9.96961 58
    endloop
  endfacet
  facet normal 0 0 1
    outer loop
      vertex 15.6527 9.96961 58
      vertex 13 12 58
      vertex 15.316 9.87938 58
    endloop
  endfacet
  facet normal 0 0 1
    outer loop
      vertex 14.1206 8.68404 58
      vertex 11 10 58
      vertex 14.0304 8.3473 58
    endloop
  endfacet
  facet normal 0 0 1
    outer loop
      vertex 14.2679 9 58
      vertex 11 10 58
      vertex 14.1206 8.68404 58
    endloop
  endfacet
  facet normal -0 0 1
    outer loop
      vertex 11 10 58
      vertex 14.2679 9 58
      vertex 13 12 58
    endloop
  endfacet
  facet normal 0 0 1
    outer loop
      vertex 14.4679 9.28557 58
      vertex 13 12 58
      vertex 14.2679 9 58
    endloop
  endfacet
  facet normal 0 0 1
    outer loop
      vertex 14.7144 9.53209 58
      vertex 13 12 58
      vertex 14.4679 9.28557 58
    endloop
  endfacet
  facet normal 0 0 1
    outer loop
      vertex 15 9.73205 58
      vertex 13 12 58
      vertex 14.7144 9.53209 58
    endloop
  endfacet
  facet normal 0 0 1
    outer loop
      vertex 15.316 9.87938 58
      vertex 13 12 58
      vertex 15 9.73205 58
    endloop
  endfacet
  facet normal 0 0 1
    outer loop
      vertex 17.732 9 58
      vertex 21 10 58
      vertex 19 12 58
    endloop
  endfacet
  facet normal 0 0 1
    outer loop
      vertex 17.9696 7.6527 58
      vertex 21 10 58
      vertex 18 8 58
    endloop
  endfacet
  facet normal 0 0 1
    outer loop
      vertex 17.8794 7.31596 58
      vertex 21 10 58
      vertex 17.9696 7.6527 58
    endloop
  endfacet
  facet normal 0 0 1
    outer loop
      vertex 17.732 7 58
      vertex 21 10 58
      vertex 17.8794 7.31596 58
    endloop
  endfacet
  facet normal 0 0 1
    outer loop
      vertex 21 10 58
      vertex 17.732 7 58
      vertex 21 -2 58
    endloop
  endfacet
  facet normal -0 0 1
    outer loop
      vertex 17.5321 6.71442 58
      vertex 21 -2 58
      vertex 17.732 7 58
    endloop
  endfacet
  facet normal -0 0 1
    outer loop
      vertex 17.2856 6.46791 58
      vertex 21 -2 58
      vertex 17.5321 6.71442 58
    endloop
  endfacet
  facet normal -0 0 1
    outer loop
      vertex 17 6.26795 58
      vertex 21 -2 58
      vertex 17.2856 6.46791 58
    endloop
  endfacet
  facet normal -0 0 1
    outer loop
      vertex 16.684 6.12061 58
      vertex 21 -2 58
      vertex 17 6.26795 58
    endloop
  endfacet
  facet normal -0 0 1
    outer loop
      vertex 16.3473 6.03038 58
      vertex 21 -2 58
      vertex 16.684 6.12061 58
    endloop
  endfacet
  facet normal -0 0 1
    outer loop
      vertex 16 6 58
      vertex 21 -2 58
      vertex 16.3473 6.03038 58
    endloop
  endfacet
  facet normal 0 0 1
    outer loop
      vertex 11 -2 58
      vertex 16 6 58
      vertex 15.6527 6.03038 58
    endloop
  endfacet
  facet normal 0 0 1
    outer loop
      vertex 11 -2 58
      vertex 15.6527 6.03038 58
      vertex 15.316 6.12061 58
    endloop
  endfacet
  facet normal 0 0 1
    outer loop
      vertex 11 -2 58
      vertex 15.316 6.12061 58
      vertex 15 6.26795 58
    endloop
  endfacet
  facet normal 0 0 1
    outer loop
      vertex 11 -2 58
      vertex 15 6.26795 58
      vertex 14.7144 6.46791 58
    endloop
  endfacet
  facet normal 0 0 1
    outer loop
      vertex 11 -2 58
      vertex 14.7144 6.46791 58
      vertex 14.4679 6.71442 58
    endloop
  endfacet
  facet normal 0 0 1
    outer loop
      vertex 14.0304 8.3473 58
      vertex 11 10 58
      vertex 14 8 58
    endloop
  endfacet
  facet normal 0 0 1
    outer loop
      vertex 14 8 58
      vertex 11 10 58
      vertex 14.0304 7.6527 58
    endloop
  endfacet
  facet normal 0 0 1
    outer loop
      vertex 11 10 58
      vertex 14.1206 7.31596 58
      vertex 14.0304 7.6527 58
    endloop
  endfacet
  facet normal 0 0 1
    outer loop
      vertex 11 10 58
      vertex 14.2679 7 58
      vertex 14.1206 7.31596 58
    endloop
  endfacet
  facet normal 0 0 1
    outer loop
      vertex 11 -2 58
      vertex 14.2679 7 58
      vertex 11 10 58
    endloop
  endfacet
  facet normal 0 0 1
    outer loop
      vertex 14.2679 7 58
      vertex 11 -2 58
      vertex 14.4679 6.71442 58
    endloop
  endfacet
  facet normal 0 0 1
    outer loop
      vertex 16 6 58
      vertex 11 -2 58
      vertex 21 -2 58
    endloop
  endfacet
  facet normal 0 -1 0
    outer loop
      vertex 11 -2 57.8
      vertex 21 -2 58
      vertex 11 -2 58
    endloop
  endfacet
  facet normal 0 -1 0
    outer loop
      vertex 4 -2 35.8
      vertex 21 -2 58
      vertex 11 -2 57.8
    endloop
  endfacet
  facet normal 0 -1 0
    outer loop
      vertex 21 -2 0
      vertex 4 -2 35.8
      vertex 4 -2 4
    endloop
  endfacet
  facet normal 0 -1 0
    outer loop
      vertex 4 -2 35.8
      vertex 21 -2 0
      vertex 21 -2 58
    endloop
  endfacet
  facet normal 0 -1 0
    outer loop
      vertex 9 -2 -10
      vertex 4 -2 4
      vertex 0 -2 0
    endloop
  endfacet
  facet normal 0 -1 0
    outer loop
      vertex 9 -2 -10
      vertex 0 -2 0
      vertex 0 -2 -10
    endloop
  endfacet
  facet normal 0 -1 0
    outer loop
      vertex 4 -2 4
      vertex 9 -2 -10
      vertex 21 -2 0
    endloop
  endfacet
  facet normal 0.707107 0.707107 0
    outer loop
      vertex 21 10 58
      vertex 19 12 56
      vertex 19 12 58
    endloop
  endfacet
  facet normal 0.707107 0.707107 0
    outer loop
      vertex 19 12 56
      vertex 21 10 58
      vertex 21 10 56
    endloop
  endfacet
  facet normal 0 0 -1
    outer loop
      vertex 17.8794 7.31596 56
      vertex 21 10 56
      vertex 21 0 56
    endloop
  endfacet
  facet normal 0 0 -1
    outer loop
      vertex 17.9696 8.3473 56
      vertex 21 10 56
      vertex 18 8 56
    endloop
  endfacet
  facet normal 0 0 -1
    outer loop
      vertex 21 10 56
      vertex 17.9696 7.6527 56
      vertex 18 8 56
    endloop
  endfacet
  facet normal 0 0 -1
    outer loop
      vertex 21 10 56
      vertex 17.8794 7.31596 56
      vertex 17.9696 7.6527 56
    endloop
  endfacet
  facet normal 0 0 -1
    outer loop
      vertex 21 0 56
      vertex 17.732 7 56
      vertex 17.8794 7.31596 56
    endloop
  endfacet
  facet normal 0 0 -1
    outer loop
      vertex 21 0 56
      vertex 17.5321 6.71442 56
      vertex 17.732 7 56
    endloop
  endfacet
  facet normal 0 0 -1
    outer loop
      vertex 21 0 56
      vertex 17.2856 6.46791 56
      vertex 17.5321 6.71442 56
    endloop
  endfacet
  facet normal 0 0 -1
    outer loop
      vertex 21 0 56
      vertex 17 6.26795 56
      vertex 17.2856 6.46791 56
    endloop
  endfacet
  facet normal 0 0 -1
    outer loop
      vertex 21 0 56
      vertex 16.684 6.12061 56
      vertex 17 6.26795 56
    endloop
  endfacet
  facet normal 0 0 -1
    outer loop
      vertex 21 0 56
      vertex 16.3473 6.03038 56
      vertex 16.684 6.12061 56
    endloop
  endfacet
  facet normal 0 0 -1
    outer loop
      vertex 21 0 56
      vertex 16 6 56
      vertex 16.3473 6.03038 56
    endloop
  endfacet
  facet normal 0 0 -1
    outer loop
      vertex 11 0 56
      vertex 16 6 56
      vertex 21 0 56
    endloop
  endfacet
  facet normal -0 0 -1
    outer loop
      vertex 16 6 56
      vertex 11 0 56
      vertex 15.6527 6.03038 56
    endloop
  endfacet
  facet normal -0 0 -1
    outer loop
      vertex 15.6527 6.03038 56
      vertex 11 0 56
      vertex 15.316 6.12061 56
    endloop
  endfacet
  facet normal -0 0 -1
    outer loop
      vertex 15.316 6.12061 56
      vertex 11 0 56
      vertex 15 6.26795 56
    endloop
  endfacet
  facet normal -0 0 -1
    outer loop
      vertex 15 6.26795 56
      vertex 11 0 56
      vertex 14.7144 6.46791 56
    endloop
  endfacet
  facet normal 0 0 -1
    outer loop
      vertex 11 10 56
      vertex 14 8 56
      vertex 14.0304 7.6527 56
    endloop
  endfacet
  facet normal -0 0 -1
    outer loop
      vertex 14.7144 6.46791 56
      vertex 11 0 56
      vertex 14.4679 6.71442 56
    endloop
  endfacet
  facet normal 0 0 -1
    outer loop
      vertex 11 0 56
      vertex 14.2679 7 56
      vertex 14.4679 6.71442 56
    endloop
  endfacet
  facet normal 0 0 -1
    outer loop
      vertex 11 0 56
      vertex 14.1206 7.31596 56
      vertex 14.2679 7 56
    endloop
  endfacet
  facet normal 0 0 -1
    outer loop
      vertex 11 10 56
      vertex 14.1206 7.31596 56
      vertex 11 0 56
    endloop
  endfacet
  facet normal 0 0 -1
    outer loop
      vertex 14.1206 7.31596 56
      vertex 11 10 56
      vertex 14.0304 7.6527 56
    endloop
  endfacet
  facet normal 0 0 -1
    outer loop
      vertex 14 8 56
      vertex 11 10 56
      vertex 13 12 56
    endloop
  endfacet
  facet normal 0 0 -1
    outer loop
      vertex 17.8794 8.68404 56
      vertex 21 10 56
      vertex 17.9696 8.3473 56
    endloop
  endfacet
  facet normal 0 0 -1
    outer loop
      vertex 17.732 9 56
      vertex 21 10 56
      vertex 17.8794 8.68404 56
    endloop
  endfacet
  facet normal -0 0 -1
    outer loop
      vertex 21 10 56
      vertex 17.732 9 56
      vertex 19 12 56
    endloop
  endfacet
  facet normal 0 0 -1
    outer loop
      vertex 17.5321 9.28557 56
      vertex 19 12 56
      vertex 17.732 9 56
    endloop
  endfacet
  facet normal 0 0 -1
    outer loop
      vertex 17.2856 9.53209 56
      vertex 19 12 56
      vertex 17.5321 9.28557 56
    endloop
  endfacet
  facet normal 0 0 -1
    outer loop
      vertex 17 9.73205 56
      vertex 19 12 56
      vertex 17.2856 9.53209 56
    endloop
  endfacet
  facet normal 0 0 -1
    outer loop
      vertex 16.684 9.87938 56
      vertex 19 12 56
      vertex 17 9.73205 56
    endloop
  endfacet
  facet normal 0 0 -1
    outer loop
      vertex 16.3473 9.96961 56
      vertex 19 12 56
      vertex 16.684 9.87938 56
    endloop
  endfacet
  facet normal 0 0 -1
    outer loop
      vertex 16 10 56
      vertex 19 12 56
      vertex 16.3473 9.96961 56
    endloop
  endfacet
  facet normal 0 0 -1
    outer loop
      vertex 13 12 56
      vertex 16 10 56
      vertex 15.6527 9.96961 56
    endloop
  endfacet
  facet normal 0 0 -1
    outer loop
      vertex 13 12 56
      vertex 15.6527 9.96961 56
      vertex 15.316 9.87938 56
    endloop
  endfacet
  facet normal 0 0 -1
    outer loop
      vertex 13 12 56
      vertex 15.316 9.87938 56
      vertex 15 9.73205 56
    endloop
  endfacet
  facet normal 0 0 -1
    outer loop
      vertex 16 10 56
      vertex 13 12 56
      vertex 19 12 56
    endloop
  endfacet
  facet normal 0 0 -1
    outer loop
      vertex 14.7144 9.53209 56
      vertex 13 12 56
      vertex 15 9.73205 56
    endloop
  endfacet
  facet normal 0 0 -1
    outer loop
      vertex 14.4679 9.28557 56
      vertex 13 12 56
      vertex 14.7144 9.53209 56
    endloop
  endfacet
  facet normal 0 0 -1
    outer loop
      vertex 14.2679 9 56
      vertex 13 12 56
      vertex 14.4679 9.28557 56
    endloop
  endfacet
  facet normal 0 0 -1
    outer loop
      vertex 14.1206 8.68404 56
      vertex 13 12 56
      vertex 14.2679 9 56
    endloop
  endfacet
  facet normal 0 0 -1
    outer loop
      vertex 14.0304 8.3473 56
      vertex 13 12 56
      vertex 14.1206 8.68404 56
    endloop
  endfacet
  facet normal 0 0 -1
    outer loop
      vertex 13 12 56
      vertex 14.0304 8.3473 56
      vertex 14 8 56
    endloop
  endfacet
  facet normal 1 0 0
    outer loop
      vertex 21 10 58
      vertex 21 0 56
      vertex 21 10 56
    endloop
  endfacet
  facet normal 1 -0 0
    outer loop
      vertex 21 -2 58
      vertex 21 0 56
      vertex 21 10 58
    endloop
  endfacet
  facet normal 1 0 0
    outer loop
      vertex 21 -2 0
      vertex 21 0 56
      vertex 21 -2 58
    endloop
  endfacet
  facet normal 1 0 0
    outer loop
      vertex 21 0 56
      vertex 21 -2 0
      vertex 21 0 0
    endloop
  endfacet
  facet normal -0.707107 0.707107 0
    outer loop
      vertex 11 10 56
      vertex 13 12 58
      vertex 13 12 56
    endloop
  endfacet
  facet normal -0.707107 0.707107 0
    outer loop
      vertex 13 12 58
      vertex 11 10 56
      vertex 11 10 58
    endloop
  endfacet
  facet normal 0 1 -0
    outer loop
      vertex 19 12 56
      vertex 13 12 58
      vertex 19 12 58
    endloop
  endfacet
  facet normal 0 1 0
    outer loop
      vertex 13 12 58
      vertex 19 12 56
      vertex 13 12 56
    endloop
  endfacet
  facet normal -0.996195 -0.0871547 0
    outer loop
      vertex 18 8 56
      vertex 17.9696 8.3473 58
      vertex 17.9696 8.3473 56
    endloop
  endfacet
  facet normal -0.996195 -0.0871547 0
    outer loop
      vertex 17.9696 8.3473 58
      vertex 18 8 56
      vertex 18 8 58
    endloop
  endfacet
  facet normal 0.0871571 -0.996195 0
    outer loop
      vertex 15.6527 9.96961 56
      vertex 16 10 58
      vertex 15.6527 9.96961 58
    endloop
  endfacet
  facet normal 0.0871571 -0.996195 0
    outer loop
      vertex 16 10 58
      vertex 15.6527 9.96961 56
      vertex 16 10 56
    endloop
  endfacet
  facet normal -0.707107 -0.707107 0
    outer loop
      vertex 17.5321 9.28557 56
      vertex 17.2856 9.53209 58
      vertex 17.2856 9.53209 56
    endloop
  endfacet
  facet normal -0.707107 -0.707107 0
    outer loop
      vertex 17.2856 9.53209 58
      vertex 17.5321 9.28557 56
      vertex 17.5321 9.28557 58
    endloop
  endfacet
  facet normal 0.707107 -0.707107 0
    outer loop
      vertex 14.4679 9.28557 58
      vertex 14.7144 9.53209 56
      vertex 14.7144 9.53209 58
    endloop
  endfacet
  facet normal 0.707107 -0.707107 0
    outer loop
      vertex 14.7144 9.53209 56
      vertex 14.4679 9.28557 58
      vertex 14.4679 9.28557 56
    endloop
  endfacet
  facet normal 0.422621 -0.906307 0
    outer loop
      vertex 15 9.73205 56
      vertex 15.316 9.87938 58
      vertex 15 9.73205 58
    endloop
  endfacet
  facet normal 0.422621 -0.906307 0
    outer loop
      vertex 15.316 9.87938 58
      vertex 15 9.73205 56
      vertex 15.316 9.87938 56
    endloop
  endfacet
  facet normal -0.707107 0.707107 0
    outer loop
      vertex 17.2856 6.46791 56
      vertex 17.5321 6.71442 58
      vertex 17.5321 6.71442 56
    endloop
  endfacet
  facet normal -0.707107 0.707107 0
    outer loop
      vertex 17.5321 6.71442 58
      vertex 17.2856 6.46791 56
      vertex 17.2856 6.46791 58
    endloop
  endfacet
  facet normal -0.819154 0.573573 0
    outer loop
      vertex 17.5321 6.71442 56
      vertex 17.732 7 58
      vertex 17.732 7 56
    endloop
  endfacet
  facet normal -0.819154 0.573573 0
    outer loop
      vertex 17.732 7 58
      vertex 17.5321 6.71442 56
      vertex 17.5321 6.71442 58
    endloop
  endfacet
  facet normal -0.906307 -0.422619 0
    outer loop
      vertex 17.8794 8.68404 56
      vertex 17.732 9 58
      vertex 17.732 9 56
    endloop
  endfacet
  facet normal -0.906307 -0.422619 0
    outer loop
      vertex 17.732 9 58
      vertex 17.8794 8.68404 56
      vertex 17.8794 8.68404 58
    endloop
  endfacet
  facet normal -0.965925 -0.258821 0
    outer loop
      vertex 17.9696 8.3473 56
      vertex 17.8794 8.68404 58
      vertex 17.8794 8.68404 56
    endloop
  endfacet
  facet normal -0.965925 -0.258821 0
    outer loop
      vertex 17.8794 8.68404 58
      vertex 17.9696 8.3473 56
      vertex 17.9696 8.3473 58
    endloop
  endfacet
  facet normal -0.819153 -0.573575 0
    outer loop
      vertex 17.732 9 56
      vertex 17.5321 9.28557 58
      vertex 17.5321 9.28557 56
    endloop
  endfacet
  facet normal -0.819153 -0.573575 0
    outer loop
      vertex 17.5321 9.28557 58
      vertex 17.732 9 56
      vertex 17.732 9 58
    endloop
  endfacet
  facet normal -0.422619 -0.906307 0
    outer loop
      vertex 16.684 9.87938 56
      vertex 17 9.73205 58
      vertex 16.684 9.87938 58
    endloop
  endfacet
  facet normal -0.422619 -0.906307 -0
    outer loop
      vertex 17 9.73205 58
      vertex 16.684 9.87938 56
      vertex 17 9.73205 56
    endloop
  endfacet
  facet normal -0.573575 -0.819153 0
    outer loop
      vertex 17 9.73205 56
      vertex 17.2856 9.53209 58
      vertex 17 9.73205 58
    endloop
  endfacet
  facet normal -0.573575 -0.819153 -0
    outer loop
      vertex 17.2856 9.53209 58
      vertex 17 9.73205 56
      vertex 17.2856 9.53209 56
    endloop
  endfacet
  facet normal 0.906307 -0.422619 0
    outer loop
      vertex 14.1206 8.68404 58
      vertex 14.2679 9 56
      vertex 14.2679 9 58
    endloop
  endfacet
  facet normal 0.906307 -0.422619 0
    outer loop
      vertex 14.2679 9 56
      vertex 14.1206 8.68404 58
      vertex 14.1206 8.68404 56
    endloop
  endfacet
  facet normal 0.819152 -0.573576 0
    outer loop
      vertex 14.2679 9 58
      vertex 14.4679 9.28557 56
      vertex 14.4679 9.28557 58
    endloop
  endfacet
  facet normal 0.819152 -0.573576 0
    outer loop
      vertex 14.4679 9.28557 56
      vertex 14.2679 9 58
      vertex 14.2679 9 56
    endloop
  endfacet
  facet normal 0.965926 -0.258818 0
    outer loop
      vertex 14.0304 8.3473 58
      vertex 14.1206 8.68404 56
      vertex 14.1206 8.68404 58
    endloop
  endfacet
  facet normal 0.965926 -0.258818 0
    outer loop
      vertex 14.1206 8.68404 56
      vertex 14.0304 8.3473 58
      vertex 14.0304 8.3473 56
    endloop
  endfacet
  facet normal 0.573575 -0.819153 0
    outer loop
      vertex 14.7144 9.53209 56
      vertex 15 9.73205 58
      vertex 14.7144 9.53209 58
    endloop
  endfacet
  facet normal 0.573575 -0.819153 0
    outer loop
      vertex 15 9.73205 58
      vertex 14.7144 9.53209 56
      vertex 15 9.73205 56
    endloop
  endfacet
  facet normal 0.258818 -0.965926 0
    outer loop
      vertex 15.316 9.87938 56
      vertex 15.6527 9.96961 58
      vertex 15.316 9.87938 58
    endloop
  endfacet
  facet normal 0.258818 -0.965926 0
    outer loop
      vertex 15.6527 9.96961 58
      vertex 15.316 9.87938 56
      vertex 15.6527 9.96961 56
    endloop
  endfacet
  facet normal -0.258818 0.965926 0
    outer loop
      vertex 16.684 6.12061 56
      vertex 16.3473 6.03038 58
      vertex 16.684 6.12061 58
    endloop
  endfacet
  facet normal -0.258818 0.965926 0
    outer loop
      vertex 16.3473 6.03038 58
      vertex 16.684 6.12061 56
      vertex 16.3473 6.03038 56
    endloop
  endfacet
  facet normal -0.573575 0.819153 0
    outer loop
      vertex 17.2856 6.46791 56
      vertex 17 6.26795 58
      vertex 17.2856 6.46791 58
    endloop
  endfacet
  facet normal -0.573575 0.819153 0
    outer loop
      vertex 17 6.26795 58
      vertex 17.2856 6.46791 56
      vertex 17 6.26795 56
    endloop
  endfacet
  facet normal 0.573575 0.819153 -0
    outer loop
      vertex 15 6.26795 56
      vertex 14.7144 6.46791 58
      vertex 15 6.26795 58
    endloop
  endfacet
  facet normal 0.573575 0.819153 0
    outer loop
      vertex 14.7144 6.46791 58
      vertex 15 6.26795 56
      vertex 14.7144 6.46791 56
    endloop
  endfacet
  facet normal 0.258818 0.965926 -0
    outer loop
      vertex 15.6527 6.03038 56
      vertex 15.316 6.12061 58
      vertex 15.6527 6.03038 58
    endloop
  endfacet
  facet normal 0.258818 0.965926 0
    outer loop
      vertex 15.316 6.12061 58
      vertex 15.6527 6.03038 56
      vertex 15.316 6.12061 56
    endloop
  endfacet
  facet normal 0.819153 0.573575 0
    outer loop
      vertex 14.4679 6.71442 58
      vertex 14.2679 7 56
      vertex 14.2679 7 58
    endloop
  endfacet
  facet normal 0.819153 0.573575 0
    outer loop
      vertex 14.2679 7 56
      vertex 14.4679 6.71442 58
      vertex 14.4679 6.71442 56
    endloop
  endfacet
  facet normal 0.707107 0.707107 0
    outer loop
      vertex 14.7144 6.46791 58
      vertex 14.4679 6.71442 56
      vertex 14.4679 6.71442 58
    endloop
  endfacet
  facet normal 0.707107 0.707107 0
    outer loop
      vertex 14.4679 6.71442 56
      vertex 14.7144 6.46791 58
      vertex 14.7144 6.46791 56
    endloop
  endfacet
  facet normal 0.965926 0.258818 0
    outer loop
      vertex 14.1206 7.31596 58
      vertex 14.0304 7.6527 56
      vertex 14.0304 7.6527 58
    endloop
  endfacet
  facet normal 0.965926 0.258818 0
    outer loop
      vertex 14.0304 7.6527 56
      vertex 14.1206 7.31596 58
      vertex 14.1206 7.31596 56
    endloop
  endfacet
  facet normal -0.0871574 -0.996195 0
    outer loop
      vertex 16 10 56
      vertex 16.3473 9.96961 58
      vertex 16 10 58
    endloop
  endfacet
  facet normal -0.0871574 -0.996195 -0
    outer loop
      vertex 16.3473 9.96961 58
      vertex 16 10 56
      vertex 16.3473 9.96961 56
    endloop
  endfacet
  facet normal 0.996195 -0.0871547 0
    outer loop
      vertex 14 8 58
      vertex 14.0304 8.3473 56
      vertex 14.0304 8.3473 58
    endloop
  endfacet
  facet normal 0.996195 -0.0871547 0
    outer loop
      vertex 14.0304 8.3473 56
      vertex 14 8 58
      vertex 14 8 56
    endloop
  endfacet
  facet normal -0.422619 0.906307 0
    outer loop
      vertex 17 6.26795 56
      vertex 16.684 6.12061 58
      vertex 17 6.26795 58
    endloop
  endfacet
  facet normal -0.422619 0.906307 0
    outer loop
      vertex 16.684 6.12061 58
      vertex 17 6.26795 56
      vertex 16.684 6.12061 56
    endloop
  endfacet
  facet normal -0.906307 0.422621 0
    outer loop
      vertex 17.732 7 56
      vertex 17.8794 7.31596 58
      vertex 17.8794 7.31596 56
    endloop
  endfacet
  facet normal -0.906307 0.422621 0
    outer loop
      vertex 17.8794 7.31596 58
      vertex 17.732 7 56
      vertex 17.732 7 58
    endloop
  endfacet
  facet normal -0.965925 0.258821 0
    outer loop
      vertex 17.8794 7.31596 56
      vertex 17.9696 7.6527 58
      vertex 17.9696 7.6527 56
    endloop
  endfacet
  facet normal -0.965925 0.258821 0
    outer loop
      vertex 17.9696 7.6527 58
      vertex 17.8794 7.31596 56
      vertex 17.8794 7.31596 58
    endloop
  endfacet
  facet normal 0.422621 0.906307 -0
    outer loop
      vertex 15.316 6.12061 56
      vertex 15 6.26795 58
      vertex 15.316 6.12061 58
    endloop
  endfacet
  facet normal 0.422621 0.906307 0
    outer loop
      vertex 15 6.26795 58
      vertex 15.316 6.12061 56
      vertex 15 6.26795 56
    endloop
  endfacet
  facet normal 0.0871544 0.996195 -0
    outer loop
      vertex 16 6 56
      vertex 15.6527 6.03038 58
      vertex 16 6 58
    endloop
  endfacet
  facet normal 0.0871544 0.996195 0
    outer loop
      vertex 15.6527 6.03038 58
      vertex 16 6 56
      vertex 15.6527 6.03038 56
    endloop
  endfacet
  facet normal 0.906307 0.422621 0
    outer loop
      vertex 14.2679 7 58
      vertex 14.1206 7.31596 56
      vertex 14.1206 7.31596 58
    endloop
  endfacet
  facet normal 0.906307 0.422621 0
    outer loop
      vertex 14.1206 7.31596 56
      vertex 14.2679 7 58
      vertex 14.2679 7 56
    endloop
  endfacet
  facet normal -0.258818 -0.965926 0
    outer loop
      vertex 16.3473 9.96961 56
      vertex 16.684 9.87938 58
      vertex 16.3473 9.96961 58
    endloop
  endfacet
  facet normal -0.258818 -0.965926 -0
    outer loop
      vertex 16.684 9.87938 58
      vertex 16.3473 9.96961 56
      vertex 16.684 9.87938 56
    endloop
  endfacet
  facet normal 0.996195 0.0871544 0
    outer loop
      vertex 14.0304 7.6527 58
      vertex 14 8 56
      vertex 14 8 58
    endloop
  endfacet
  facet normal 0.996195 0.0871544 0
    outer loop
      vertex 14 8 56
      vertex 14.0304 7.6527 58
      vertex 14.0304 7.6527 56
    endloop
  endfacet
  facet normal -0.996195 0.0871544 0
    outer loop
      vertex 17.9696 7.6527 56
      vertex 18 8 58
      vertex 18 8 56
    endloop
  endfacet
  facet normal -0.996195 0.0871544 0
    outer loop
      vertex 18 8 58
      vertex 17.9696 7.6527 56
      vertex 17.9696 7.6527 58
    endloop
  endfacet
  facet normal -0.0871547 0.996195 0
    outer loop
      vertex 16.3473 6.03038 56
      vertex 16 6 58
      vertex 16.3473 6.03038 58
    endloop
  endfacet
  facet normal -0.0871547 0.996195 0
    outer loop
      vertex 16 6 58
      vertex 16.3473 6.03038 56
      vertex 16 6 56
    endloop
  endfacet
  facet normal -1 0 0
    outer loop
      vertex 3 3.35 26.8
      vertex 3 4.35 28.8
      vertex 3 4.35 26.8
    endloop
  endfacet
  facet normal -1 -0 0
    outer loop
      vertex 3 4.35 28.8
      vertex 3 3.35 26.8
      vertex 3 3.35 28.8
    endloop
  endfacet
  facet normal -1 0 0
    outer loop
      vertex 3 3.35 17
      vertex 3 4.35 19
      vertex 3 4.35 17
    endloop
  endfacet
  facet normal -1 -0 0
    outer loop
      vertex 3 4.35 19
      vertex 3 3.35 17
      vertex 3 3.35 19
    endloop
  endfacet
  facet normal -1 0 0
    outer loop
      vertex 3 4.35 17
      vertex 3 14 13
      vertex 3 4.35 13
    endloop
  endfacet
  facet normal -1 0 0
    outer loop
      vertex 3 4.35 19
      vertex 3 14 13
      vertex 3 4.35 17
    endloop
  endfacet
  facet normal -1 0 0
    outer loop
      vertex 3 14 13
      vertex 3 4.35 19
      vertex 3 14 32.8
    endloop
  endfacet
  facet normal -1 0 0
    outer loop
      vertex 3 4.35 26.8
      vertex 3 14 32.8
      vertex 3 4.35 19
    endloop
  endfacet
  facet normal -1 0 0
    outer loop
      vertex 3 4.35 28.8
      vertex 3 14 32.8
      vertex 3 4.35 26.8
    endloop
  endfacet
  facet normal -1 -0 0
    outer loop
      vertex 3 14 32.8
      vertex 3 4.35 28.8
      vertex 3 4.35 32.8
    endloop
  endfacet
  facet normal 0 0 -1
    outer loop
      vertex 3 3.35 28.8
      vertex -8.88178e-16 4.35 28.8
      vertex 3 4.35 28.8
    endloop
  endfacet
  facet normal 0 -0 -1
    outer loop
      vertex -8.88178e-16 4.35 28.8
      vertex 3 3.35 28.8
      vertex -1.11022e-15 3.35 28.8
    endloop
  endfacet
  facet normal -0 0 1
    outer loop
      vertex -1.33227e-15 4.35 26.8
      vertex 3 3.35 26.8
      vertex 3 4.35 26.8
    endloop
  endfacet
  facet normal 0 0 1
    outer loop
      vertex 3 3.35 26.8
      vertex -1.33227e-15 4.35 26.8
      vertex -1.55431e-15 3.35 26.8
    endloop
  endfacet
  facet normal -0 0 1
    outer loop
      vertex -3.5083e-15 4.35 17
      vertex 3 3.35 17
      vertex 3 4.35 17
    endloop
  endfacet
  facet normal 0 0 1
    outer loop
      vertex 3 3.35 17
      vertex -3.5083e-15 4.35 17
      vertex -3.73035e-15 3.35 17
    endloop
  endfacet
  facet normal 0 0 -1
    outer loop
      vertex 3 3.35 19
      vertex -3.06422e-15 4.35 19
      vertex 3 4.35 19
    endloop
  endfacet
  facet normal 0 -0 -1
    outer loop
      vertex -3.06422e-15 4.35 19
      vertex 3 3.35 19
      vertex -3.28626e-15 3.35 19
    endloop
  endfacet
  facet normal 0 -1 0
    outer loop
      vertex -4.8 3.35 14
      vertex -3.8 3.35 13
      vertex -3.8 3.35 14
    endloop
  endfacet
  facet normal 0 -1 -0
    outer loop
      vertex -3.8 3.35 13
      vertex -4.8 3.35 12
      vertex -4.61853e-15 3.35 13
    endloop
  endfacet
  facet normal 0 -1 0
    outer loop
      vertex -4.8 3.35 12
      vertex -3.8 3.35 13
      vertex -4.8 3.35 14
    endloop
  endfacet
  facet normal 0 -1 -0
    outer loop
      vertex -3.73035e-15 3.35 17
      vertex -4.61853e-15 3.35 13
      vertex 3 3.35 17
    endloop
  endfacet
  facet normal 0 -1 -0
    outer loop
      vertex -1.55431e-15 3.35 26.8
      vertex -3.28626e-15 3.35 19
      vertex 3 3.35 26.8
    endloop
  endfacet
  facet normal 0 -1 0
    outer loop
      vertex -2.22045e-16 3.35 32.8
      vertex -4.8 3.35 33.8
      vertex -3.8 3.35 32.8
    endloop
  endfacet
  facet normal 0 -1 0
    outer loop
      vertex -4.8 3.35 31.8
      vertex -3.8 3.35 32.8
      vertex -4.8 3.35 33.8
    endloop
  endfacet
  facet normal 0 -1 -0
    outer loop
      vertex -3.8 3.35 32.8
      vertex -4.8 3.35 31.8
      vertex -3.8 3.35 31.8
    endloop
  endfacet
  facet normal 0 -1 0
    outer loop
      vertex -4.8 3.35 33.8
      vertex -2.22045e-16 3.35 32.8
      vertex 4 3.35 33.8
    endloop
  endfacet
  facet normal 0 -1 0
    outer loop
      vertex 3 3.35 28.8
      vertex -2.22045e-16 3.35 32.8
      vertex -1.11022e-15 3.35 28.8
    endloop
  endfacet
  facet normal 0 -1 0
    outer loop
      vertex -2.22045e-16 3.35 32.8
      vertex 3 3.35 28.8
      vertex 4 3.35 33.8
    endloop
  endfacet
  facet normal 0 -1 0
    outer loop
      vertex 3 3.35 26.8
      vertex 4 3.35 33.8
      vertex 3 3.35 28.8
    endloop
  endfacet
  facet normal 0 -1 0
    outer loop
      vertex 3 3.35 19
      vertex 3 3.35 26.8
      vertex -3.28626e-15 3.35 19
    endloop
  endfacet
  facet normal 0 -1 0
    outer loop
      vertex 3 3.35 19
      vertex 4 3.35 33.8
      vertex 3 3.35 26.8
    endloop
  endfacet
  facet normal 0 -1 0
    outer loop
      vertex 4 3.35 12
      vertex 3 3.35 19
      vertex 3 3.35 17
    endloop
  endfacet
  facet normal 0 -1 0
    outer loop
      vertex 3 3.35 19
      vertex 4 3.35 12
      vertex 4 3.35 33.8
    endloop
  endfacet
  facet normal 0 -1 0
    outer loop
      vertex -4.61853e-15 3.35 13
      vertex 4 3.35 12
      vertex 3 3.35 17
    endloop
  endfacet
  facet normal 0 -1 0
    outer loop
      vertex 4 3.35 12
      vertex -4.61853e-15 3.35 13
      vertex -4.8 3.35 12
    endloop
  endfacet
  facet normal -1 0 0
    outer loop
      vertex -4.8 3.35 31.8
      vertex -4.8 13 33.8
      vertex -4.8 13 31.8
    endloop
  endfacet
  facet normal -1 -0 0
    outer loop
      vertex -4.8 13 33.8
      vertex -4.8 3.35 31.8
      vertex -4.8 3.35 33.8
    endloop
  endfacet
  facet normal -1 0 0
    outer loop
      vertex -4.8 3.35 12
      vertex -4.8 13 14
      vertex -4.8 13 12
    endloop
  endfacet
  facet normal -1 -0 0
    outer loop
      vertex -4.8 13 14
      vertex -4.8 3.35 12
      vertex -4.8 3.35 14
    endloop
  endfacet
  facet normal 0 1 -0
    outer loop
      vertex 4 15 22.15
      vertex 2.4 15 33.8
      vertex 4 15 33.8
    endloop
  endfacet
  facet normal 0 1 0
    outer loop
      vertex 2.4 15 12
      vertex 4 15 22.15
      vertex 4 15 12
    endloop
  endfacet
  facet normal 0 1 0
    outer loop
      vertex 4 15 22.15
      vertex 2.4 15 12
      vertex 2.4 15 33.8
    endloop
  endfacet
  facet normal 1 0 0
    outer loop
      vertex 4 3.35 12
      vertex 4 15 22.15
      vertex 4 3.35 33.8
    endloop
  endfacet
  facet normal 1 0 0
    outer loop
      vertex 4 15 22.15
      vertex 4 3.35 12
      vertex 4 15 12
    endloop
  endfacet
  facet normal 0 0 1
    outer loop
      vertex 4 15 33.8
      vertex 2.4 15 33.8
      vertex 2.4 13 33.8
    endloop
  endfacet
  facet normal 0 0 1
    outer loop
      vertex 4 15 33.8
      vertex 2.4 13 33.8
      vertex 4 3.35 33.8
    endloop
  endfacet
  facet normal 0 0 1
    outer loop
      vertex -4.8 3.35 33.8
      vertex 2.4 13 33.8
      vertex -4.8 13 33.8
    endloop
  endfacet
  facet normal 0 0 1
    outer loop
      vertex 2.4 13 33.8
      vertex -4.8 3.35 33.8
      vertex 4 3.35 33.8
    endloop
  endfacet
  facet normal 0 0 -1
    outer loop
      vertex 4 3.35 12
      vertex 2.4 13 12
      vertex 4 15 12
    endloop
  endfacet
  facet normal 0 0 -1
    outer loop
      vertex -4.8 3.35 12
      vertex 2.4 13 12
      vertex 4 3.35 12
    endloop
  endfacet
  facet normal -0 0 -1
    outer loop
      vertex 2.4 13 12
      vertex -4.8 3.35 12
      vertex -4.8 13 12
    endloop
  endfacet
  facet normal -0 0 -1
    outer loop
      vertex 4 15 12
      vertex 2.4 13 12
      vertex 2.4 15 12
    endloop
  endfacet
  facet normal -0 0 1
    outer loop
      vertex -4.8 13 14
      vertex -3.8 3.35 14
      vertex -3.8 13 14
    endloop
  endfacet
  facet normal 0 0 1
    outer loop
      vertex -3.8 3.35 14
      vertex -4.8 13 14
      vertex -4.8 3.35 14
    endloop
  endfacet
  facet normal 0 0 -1
    outer loop
      vertex -4.8 3.35 31.8
      vertex -3.8 13 31.8
      vertex -3.8 3.35 31.8
    endloop
  endfacet
  facet normal -0 0 -1
    outer loop
      vertex -3.8 13 31.8
      vertex -4.8 3.35 31.8
      vertex -4.8 13 31.8
    endloop
  endfacet
  facet normal 1 -0 0
    outer loop
      vertex -3.8 3.35 14
      vertex -3.8 13 13
      vertex -3.8 13 14
    endloop
  endfacet
  facet normal 1 0 0
    outer loop
      vertex -3.8 13 13
      vertex -3.8 3.35 14
      vertex -3.8 3.35 13
    endloop
  endfacet
  facet normal 1 -0 0
    outer loop
      vertex -3.8 3.35 32.8
      vertex -3.8 13 31.8
      vertex -3.8 13 32.8
    endloop
  endfacet
  facet normal 1 0 0
    outer loop
      vertex -3.8 13 31.8
      vertex -3.8 3.35 32.8
      vertex -3.8 3.35 31.8
    endloop
  endfacet
  facet normal 0 0 1
    outer loop
      vertex 2.4 13 13
      vertex 3 14 13
      vertex 2.4 14 13
    endloop
  endfacet
  facet normal 0 0 1
    outer loop
      vertex 3 14 13
      vertex 2.4 13 13
      vertex 3 4.35 13
    endloop
  endfacet
  facet normal 0 0 1
    outer loop
      vertex 2.4 13 13
      vertex -4.39648e-15 4.35 13
      vertex 3 4.35 13
    endloop
  endfacet
  facet normal -0 0 1
    outer loop
      vertex -3.8 13 13
      vertex -4.39648e-15 4.35 13
      vertex 2.4 13 13
    endloop
  endfacet
  facet normal 0 0 1
    outer loop
      vertex -3.8 3.35 13
      vertex -4.39648e-15 4.35 13
      vertex -3.8 13 13
    endloop
  endfacet
  facet normal 0 0 1
    outer loop
      vertex -4.39648e-15 4.35 13
      vertex -3.8 3.35 13
      vertex -4.61853e-15 3.35 13
    endloop
  endfacet
  facet normal -1 2.22045e-16 2.22045e-16
    outer loop
      vertex -4.61853e-15 3.35 13
      vertex -3.5083e-15 4.35 17
      vertex -4.39648e-15 4.35 13
    endloop
  endfacet
  facet normal -1 2.22045e-16 2.22045e-16
    outer loop
      vertex -3.5083e-15 4.35 17
      vertex -4.61853e-15 3.35 13
      vertex -3.73035e-15 3.35 17
    endloop
  endfacet
  facet normal -1 2.22045e-16 2.22045e-16
    outer loop
      vertex -1.11022e-15 3.35 28.8
      vertex 0 4.35 32.8
      vertex -8.88178e-16 4.35 28.8
    endloop
  endfacet
  facet normal -1 2.22045e-16 2.22045e-16
    outer loop
      vertex 0 4.35 32.8
      vertex -1.11022e-15 3.35 28.8
      vertex -2.22045e-16 3.35 32.8
    endloop
  endfacet
  facet normal -1 2.22045e-16 2.22045e-16
    outer loop
      vertex -3.28626e-15 3.35 19
      vertex -1.33227e-15 4.35 26.8
      vertex -3.06422e-15 4.35 19
    endloop
  endfacet
  facet normal -1 2.22045e-16 2.22045e-16
    outer loop
      vertex -1.33227e-15 4.35 26.8
      vertex -3.28626e-15 3.35 19
      vertex -1.55431e-15 3.35 26.8
    endloop
  endfacet
  facet normal 0 0 -1
    outer loop
      vertex 3 4.35 32.8
      vertex 2.4 13 32.8
      vertex 3 14 32.8
    endloop
  endfacet
  facet normal 0 0 -1
    outer loop
      vertex 0 4.35 32.8
      vertex 2.4 13 32.8
      vertex 3 4.35 32.8
    endloop
  endfacet
  facet normal 0 0 -1
    outer loop
      vertex -3.8 3.35 32.8
      vertex 0 4.35 32.8
      vertex -2.22045e-16 3.35 32.8
    endloop
  endfacet
  facet normal 0 0 -1
    outer loop
      vertex -3.8 13 32.8
      vertex 0 4.35 32.8
      vertex -3.8 3.35 32.8
    endloop
  endfacet
  facet normal 0 0 -1
    outer loop
      vertex 0 4.35 32.8
      vertex -3.8 13 32.8
      vertex 2.4 13 32.8
    endloop
  endfacet
  facet normal -0 0 -1
    outer loop
      vertex 3 14 32.8
      vertex 2.4 13 32.8
      vertex 2.4 14 32.8
    endloop
  endfacet
  facet normal 0 1 0
    outer loop
      vertex -3.8 13 32.8
      vertex 2.4 13 33.8
      vertex 2.4 13 32.8
    endloop
  endfacet
  facet normal 0 1 0
    outer loop
      vertex 2.4 13 33.8
      vertex -3.8 13 32.8
      vertex -4.8 13 33.8
    endloop
  endfacet
  facet normal 0 1 0
    outer loop
      vertex -4.8 13 31.8
      vertex -3.8 13 32.8
      vertex -3.8 13 31.8
    endloop
  endfacet
  facet normal 0 1 0
    outer loop
      vertex -3.8 13 32.8
      vertex -4.8 13 31.8
      vertex -4.8 13 33.8
    endloop
  endfacet
  facet normal 0 1 0
    outer loop
      vertex 2.4 13 13
      vertex 2.4 13 12
      vertex -3.8 13 13
    endloop
  endfacet
  facet normal 0 1 -0
    outer loop
      vertex -3.8 13 13
      vertex -4.8 13 14
      vertex -3.8 13 14
    endloop
  endfacet
  facet normal 0 1 0
    outer loop
      vertex -3.8 13 13
      vertex -4.8 13 12
      vertex -4.8 13 14
    endloop
  endfacet
  facet normal 0 1 0
    outer loop
      vertex -4.8 13 12
      vertex -3.8 13 13
      vertex 2.4 13 12
    endloop
  endfacet
  facet normal -1 0 0
    outer loop
      vertex 2.4 15 12
      vertex 2.4 14 13
      vertex 2.4 15 33.8
    endloop
  endfacet
  facet normal -1 0 0
    outer loop
      vertex 2.4 13 12
      vertex 2.4 14 13
      vertex 2.4 15 12
    endloop
  endfacet
  facet normal -1 -0 0
    outer loop
      vertex 2.4 14 13
      vertex 2.4 13 12
      vertex 2.4 13 13
    endloop
  endfacet
  facet normal -1 0 0
    outer loop
      vertex 2.4 14 32.8
      vertex 2.4 15 33.8
      vertex 2.4 14 13
    endloop
  endfacet
  facet normal -1 0 0
    outer loop
      vertex 2.4 13 33.8
      vertex 2.4 14 32.8
      vertex 2.4 13 32.8
    endloop
  endfacet
  facet normal -1 0 0
    outer loop
      vertex 2.4 14 32.8
      vertex 2.4 13 33.8
      vertex 2.4 15 33.8
    endloop
  endfacet
  facet normal 0 1 -0
    outer loop
      vertex 3 4.35 13
      vertex -3.5083e-15 4.35 17
      vertex 3 4.35 17
    endloop
  endfacet
  facet normal 0 1 0
    outer loop
      vertex -3.5083e-15 4.35 17
      vertex 3 4.35 13
      vertex -4.39648e-15 4.35 13
    endloop
  endfacet
  facet normal 0 1 -0
    outer loop
      vertex 3 4.35 28.8
      vertex 0 4.35 32.8
      vertex 3 4.35 32.8
    endloop
  endfacet
  facet normal 0 1 0
    outer loop
      vertex 0 4.35 32.8
      vertex 3 4.35 28.8
      vertex -8.88178e-16 4.35 28.8
    endloop
  endfacet
  facet normal 0 1 -0
    outer loop
      vertex 3 4.35 19
      vertex -1.33227e-15 4.35 26.8
      vertex 3 4.35 26.8
    endloop
  endfacet
  facet normal 0 1 0
    outer loop
      vertex -1.33227e-15 4.35 26.8
      vertex 3 4.35 19
      vertex -3.06422e-15 4.35 19
    endloop
  endfacet
  facet normal 0 -1 0
    outer loop
      vertex 2.4 14 13
      vertex 3 14 32.8
      vertex 2.4 14 32.8
    endloop
  endfacet
  facet normal 0 -1 -0
    outer loop
      vertex 3 14 32.8
      vertex 2.4 14 13
      vertex 3 14 13
    endloop
  endfacet
  facet normal -1 0 0
    outer loop
      vertex 4 13 10
      vertex 4 15 22.15
      vertex 4 15 12
    endloop
  endfacet
  facet normal -1 0 0
    outer loop
      vertex 4 0 10
      vertex 4 15 22.15
      vertex 4 13 10
    endloop
  endfacet
  facet normal -1 -0 0
    outer loop
      vertex 4 15 22.15
      vertex 4 0 10
      vertex 4 3.35 33.8
    endloop
  endfacet
  facet normal -1 0 0
    outer loop
      vertex 4 3.35 33.8
      vertex 4 13 35.8
      vertex 4 15 33.8
    endloop
  endfacet
  facet normal -1 0 0
    outer loop
      vertex 4 3.35 33.8
      vertex 4 0 35.8
      vertex 4 13 35.8
    endloop
  endfacet
  facet normal -1 0 0
    outer loop
      vertex 4 -2 35.8
      vertex 4 3.35 33.8
      vertex 4 0 10
    endloop
  endfacet
  facet normal -1 0 0
    outer loop
      vertex 4 -2 4
      vertex 4 0 10
      vertex 4 0 4
    endloop
  endfacet
  facet normal -1 0 0
    outer loop
      vertex 4 -2 35.8
      vertex 4 0 10
      vertex 4 -2 4
    endloop
  endfacet
  facet normal -1 0 0
    outer loop
      vertex 4 3.35 33.8
      vertex 4 -2 35.8
      vertex 4 0 35.8
    endloop
  endfacet
  facet normal 0 0 0
    outer loop
      vertex 4 15 22.15
      vertex 4 15 33.8
      vertex 4 15 12
    endloop
  endfacet
  facet normal -0 0 1
    outer loop
      vertex 4 13 35.8
      vertex 6 0 35.8
      vertex 6 13 35.8
    endloop
  endfacet
  facet normal 0 0 1
    outer loop
      vertex 6 0 35.8
      vertex 4 13 35.8
      vertex 4 0 35.8
    endloop
  endfacet
  facet normal 0 1 0
    outer loop
      vertex 4 0 4
      vertex 9 0 -10
      vertex 2 0 0
    endloop
  endfacet
  facet normal 0 1 0
    outer loop
      vertex 2 0 0
      vertex 9 0 -10
      vertex 2 0 -10
    endloop
  endfacet
  facet normal 0 1 0
    outer loop
      vertex 21 0 56
      vertex 6 0 35.8
      vertex 11 0 56
    endloop
  endfacet
  facet normal 0 1 -0
    outer loop
      vertex 21 0 0
      vertex 6 0 35.8
      vertex 21 0 56
    endloop
  endfacet
  facet normal 0 1 0
    outer loop
      vertex 6 0 10
      vertex 4 0 4
      vertex 4 0 10
    endloop
  endfacet
  facet normal 0 1 0
    outer loop
      vertex 6 0 35.8
      vertex 21 0 0
      vertex 6 0 10
    endloop
  endfacet
  facet normal 0 1 0
    outer loop
      vertex 21 0 0
      vertex 4 0 4
      vertex 6 0 10
    endloop
  endfacet
  facet normal 0 1 -0
    outer loop
      vertex 9 0 -10
      vertex 4 0 4
      vertex 21 0 0
    endloop
  endfacet
  facet normal 0 1 0
    outer loop
      vertex 4 0 4
      vertex 2 0 0
      vertex 0 0 0
    endloop
  endfacet
  facet normal 0 1 0
    outer loop
      vertex 4 0 35.8
      vertex 11 0 56
      vertex 6 0 35.8
    endloop
  endfacet
  facet normal 0 1 -0
    outer loop
      vertex 11 0 56
      vertex 4 0 35.8
      vertex 11 0 57.8
    endloop
  endfacet
  facet normal 0 0.707107 -0.707107
    outer loop
      vertex 6 13 10
      vertex 4 15 12
      vertex 6 15 12
    endloop
  endfacet
  facet normal 0 0.707107 -0.707107
    outer loop
      vertex 4 15 12
      vertex 6 13 10
      vertex 4 13 10
    endloop
  endfacet
  facet normal 0 0 -1
    outer loop
      vertex 4 0 10
      vertex 6 13 10
      vertex 6 0 10
    endloop
  endfacet
  facet normal -0 0 -1
    outer loop
      vertex 6 13 10
      vertex 4 0 10
      vertex 4 13 10
    endloop
  endfacet
  facet normal 1 -0 0
    outer loop
      vertex 6 0 35.8
      vertex 6 15 33.8
      vertex 6 13 35.8
    endloop
  endfacet
  facet normal 1 0 0
    outer loop
      vertex 6 15 33.8
      vertex 6 0 35.8
      vertex 6 15 12
    endloop
  endfacet
  facet normal 1 0 0
    outer loop
      vertex 6 0 10
      vertex 6 15 12
      vertex 6 0 35.8
    endloop
  endfacet
  facet normal 1 0 0
    outer loop
      vertex 6 15 12
      vertex 6 0 10
      vertex 6 13 10
    endloop
  endfacet
  facet normal 0 0.707107 0.707107
    outer loop
      vertex 6 15 33.8
      vertex 4 13 35.8
      vertex 6 13 35.8
    endloop
  endfacet
  facet normal 0 0.707107 0.707107
    outer loop
      vertex 4 13 35.8
      vertex 6 15 33.8
      vertex 4 15 33.8
    endloop
  endfacet
  facet normal 0 1 -0
    outer loop
      vertex 6 15 12
      vertex 4 15 33.8
      vertex 6 15 33.8
    endloop
  endfacet
  facet normal 0 1 0
    outer loop
      vertex 4 15 33.8
      vertex 6 15 12
      vertex 4 15 12
    endloop
  endfacet
  facet normal -1 0 0
    outer loop
      vertex 0 12 -8
      vertex 0 9.98481 -5.17365
      vertex 0 10 -5
    endloop
  endfacet
  facet normal -1 0 0
    outer loop
      vertex 0 12 -8
      vertex 0 9.95442 -5.52094
      vertex 0 9.98481 -5.17365
    endloop
  endfacet
  facet normal -1 0 0
    outer loop
      vertex 0 12 -8
      vertex 0 9.81908 -6.02606
      vertex 0 9.95442 -5.52094
    endloop
  endfacet
  facet normal -1 0 0
    outer loop
      vertex 0 12 -8
      vertex 0 9.67174 -6.34202
      vertex 0 9.81908 -6.02606
    endloop
  endfacet
  facet normal -1 0 0
    outer loop
      vertex 0 12 -8
      vertex 0 9.59808 -6.5
      vertex 0 9.67174 -6.34202
    endloop
  endfacet
  facet normal -1 0 0
    outer loop
      vertex 0 12 -8
      vertex 0 9.49809 -6.64279
      vertex 0 9.59808 -6.5
    endloop
  endfacet
  facet normal -1 0 0
    outer loop
      vertex 0 12 -8
      vertex 0 9.29813 -6.92836
      vertex 0 9.49809 -6.64279
    endloop
  endfacet
  facet normal -1 0 0
    outer loop
      vertex 0 10 -10
      vertex 0 8.92836 -7.29813
      vertex 0 9.29813 -6.92836
    endloop
  endfacet
  facet normal -1 0 0
    outer loop
      vertex 0 10 -10
      vertex 0 8.5 -7.59808
      vertex 0 8.92836 -7.29813
    endloop
  endfacet
  facet normal -1 0 0
    outer loop
      vertex 0 10 -10
      vertex 0 8.02606 -7.81908
      vertex 0 8.5 -7.59808
    endloop
  endfacet
  facet normal -1 0 0
    outer loop
      vertex 0 10 -10
      vertex 0 7.52094 -7.95442
      vertex 0 8.02606 -7.81908
    endloop
  endfacet
  facet normal -1 0 0
    outer loop
      vertex 0 10 -10
      vertex 0 7.17365 -7.98481
      vertex 0 7.52094 -7.95442
    endloop
  endfacet
  facet normal -1 0 0
    outer loop
      vertex 0 10 -10
      vertex 0 7 -8
      vertex 0 7.17365 -7.98481
    endloop
  endfacet
  facet normal -1 0 0
    outer loop
      vertex 0 10 -10
      vertex 0 6.82635 -7.98481
      vertex 0 7 -8
    endloop
  endfacet
  facet normal -1 0 0
    outer loop
      vertex 0 10 -10
      vertex 0 6.47906 -7.95442
      vertex 0 6.82635 -7.98481
    endloop
  endfacet
  facet normal -1 0 0
    outer loop
      vertex 0 10 -10
      vertex 0 5.97394 -7.81908
      vertex 0 6.47906 -7.95442
    endloop
  endfacet
  facet normal -1 0 0
    outer loop
      vertex 0 -2 -10
      vertex 0 5.97394 -7.81908
      vertex 0 10 -10
    endloop
  endfacet
  facet normal -1 0 0
    outer loop
      vertex 0 -2 -10
      vertex 0 4 -5
      vertex 0 4.04558 -5.52094
    endloop
  endfacet
  facet normal -1 0 0
    outer loop
      vertex 0 -2 -10
      vertex 0 4.04558 -5.52094
      vertex 0 4.18092 -6.02606
    endloop
  endfacet
  facet normal -1 0 0
    outer loop
      vertex 0 -2 -10
      vertex 0 4.18092 -6.02606
      vertex 0 4.40192 -6.5
    endloop
  endfacet
  facet normal -1 -0 0
    outer loop
      vertex 0 5.97394 -7.81908
      vertex 0 -2 -10
      vertex 0 5.5 -7.59808
    endloop
  endfacet
  facet normal -1 0 0
    outer loop
      vertex 0 -2 -10
      vertex 0 5.07164 -7.29813
      vertex 0 5.5 -7.59808
    endloop
  endfacet
  facet normal -1 0 0
    outer loop
      vertex 0 -2 -10
      vertex 0 4.70187 -6.92836
      vertex 0 5.07164 -7.29813
    endloop
  endfacet
  facet normal -1 0 0
    outer loop
      vertex 0 -2 -10
      vertex 0 4.40192 -6.5
      vertex 0 4.70187 -6.92836
    endloop
  endfacet
  facet normal -1 0 0
    outer loop
      vertex 0 -2 0
      vertex 0 4 -5
      vertex 0 -2 -10
    endloop
  endfacet
  facet normal -1 0 0
    outer loop
      vertex 0 4 -5
      vertex 0 -2 0
      vertex 0 0 0
    endloop
  endfacet
  facet normal -1 0 0
    outer loop
      vertex 0 9.29813 -6.92836
      vertex 0 12 -8
      vertex 0 10 -10
    endloop
  endfacet
  facet normal -1 0 0
    outer loop
      vertex 0 12 -8
      vertex 0 10 -5
      vertex 0 12 -2
    endloop
  endfacet
  facet normal -1 0 0
    outer loop
      vertex 0 9.96961 -4.6527
      vertex 0 12 -2
      vertex 0 10 -5
    endloop
  endfacet
  facet normal -1 0 0
    outer loop
      vertex 0 9.95442 -4.47906
      vertex 0 12 -2
      vertex 0 9.96961 -4.6527
    endloop
  endfacet
  facet normal -1 0 0
    outer loop
      vertex 0 9.81908 -3.97394
      vertex 0 12 -2
      vertex 0 9.95442 -4.47906
    endloop
  endfacet
  facet normal -1 0 0
    outer loop
      vertex 0 9.74541 -3.81596
      vertex 0 12 -2
      vertex 0 9.81908 -3.97394
    endloop
  endfacet
  facet normal -1 0 0
    outer loop
      vertex 0 9.59808 -3.5
      vertex 0 12 -2
      vertex 0 9.74541 -3.81596
    endloop
  endfacet
  facet normal -1 0 0
    outer loop
      vertex 0 9.39811 -3.21442
      vertex 0 12 -2
      vertex 0 9.59808 -3.5
    endloop
  endfacet
  facet normal -1 0 0
    outer loop
      vertex 0 9.29813 -3.07164
      vertex 0 12 -2
      vertex 0 9.39811 -3.21442
    endloop
  endfacet
  facet normal -1 -0 0
    outer loop
      vertex 0 12 -2
      vertex 0 9.29813 -3.07164
      vertex 0 10 0
    endloop
  endfacet
  facet normal -1 0 0
    outer loop
      vertex 0 8.92836 -2.70187
      vertex 0 10 0
      vertex 0 9.29813 -3.07164
    endloop
  endfacet
  facet normal -1 0 0
    outer loop
      vertex 0 8.5 -2.40192
      vertex 0 10 0
      vertex 0 8.92836 -2.70187
    endloop
  endfacet
  facet normal -1 0 0
    outer loop
      vertex 0 8.02606 -2.18092
      vertex 0 10 0
      vertex 0 8.5 -2.40192
    endloop
  endfacet
  facet normal -1 0 0
    outer loop
      vertex 0 7.52094 -2.04558
      vertex 0 10 0
      vertex 0 8.02606 -2.18092
    endloop
  endfacet
  facet normal -1 0 0
    outer loop
      vertex 0 7.3473 -2.03038
      vertex 0 10 0
      vertex 0 7.52094 -2.04558
    endloop
  endfacet
  facet normal -1 0 0
    outer loop
      vertex 0 7 -2
      vertex 0 10 0
      vertex 0 7.3473 -2.03038
    endloop
  endfacet
  facet normal -1 0 0
    outer loop
      vertex 0 6.6527 -2.03038
      vertex 0 10 0
      vertex 0 7 -2
    endloop
  endfacet
  facet normal -1 0 0
    outer loop
      vertex 0 6.47906 -2.04558
      vertex 0 10 0
      vertex 0 6.6527 -2.03038
    endloop
  endfacet
  facet normal -1 0 0
    outer loop
      vertex 0 0 0
      vertex 0 6.47906 -2.04558
      vertex 0 5.97394 -2.18092
    endloop
  endfacet
  facet normal -1 0 0
    outer loop
      vertex 0 0 0
      vertex 0 5.97394 -2.18092
      vertex 0 5.5 -2.40192
    endloop
  endfacet
  facet normal -1 0 0
    outer loop
      vertex 0 6.47906 -2.04558
      vertex 0 0 0
      vertex 0 10 0
    endloop
  endfacet
  facet normal -1 0 0
    outer loop
      vertex 0 5.07164 -2.70187
      vertex 0 0 0
      vertex 0 5.5 -2.40192
    endloop
  endfacet
  facet normal -1 0 0
    outer loop
      vertex 0 4.70187 -3.07164
      vertex 0 0 0
      vertex 0 5.07164 -2.70187
    endloop
  endfacet
  facet normal -1 0 0
    outer loop
      vertex 0 4.40192 -3.5
      vertex 0 0 0
      vertex 0 4.70187 -3.07164
    endloop
  endfacet
  facet normal -1 0 0
    outer loop
      vertex 0 4.18092 -3.97394
      vertex 0 0 0
      vertex 0 4.40192 -3.5
    endloop
  endfacet
  facet normal -1 0 0
    outer loop
      vertex 0 4.04558 -4.47906
      vertex 0 0 0
      vertex 0 4.18092 -3.97394
    endloop
  endfacet
  facet normal -1 0 0
    outer loop
      vertex 0 0 0
      vertex 0 4.04558 -4.47906
      vertex 0 4 -5
    endloop
  endfacet
  facet normal -0 0 1
    outer loop
      vertex 0 10 0
      vertex 2 0 0
      vertex 2 10 0
    endloop
  endfacet
  facet normal 0 0 1
    outer loop
      vertex 2 0 0
      vertex 0 10 0
      vertex 0 0 0
    endloop
  endfacet
  facet normal 0 0.707107 0.707107
    outer loop
      vertex 2 12 -2
      vertex 0 10 0
      vertex 2 10 0
    endloop
  endfacet
  facet normal 0 0.707107 0.707107
    outer loop
      vertex 0 10 0
      vertex 2 12 -2
      vertex 0 12 -2
    endloop
  endfacet
  facet normal 0 0 -1
    outer loop
      vertex 9 -2 -10
      vertex 2 0 -10
      vertex 9 0 -10
    endloop
  endfacet
  facet normal 0 0 -1
    outer loop
      vertex 0 -2 -10
      vertex 2 0 -10
      vertex 9 -2 -10
    endloop
  endfacet
  facet normal 0 0 -1
    outer loop
      vertex 0 10 -10
      vertex 2 0 -10
      vertex 0 -2 -10
    endloop
  endfacet
  facet normal 0 0 -1
    outer loop
      vertex 2 0 -10
      vertex 0 10 -10
      vertex 2 10 -10
    endloop
  endfacet
  facet normal 1 0 0
    outer loop
      vertex 2 12 -2
      vertex 2 9.98481 -4.82635
      vertex 2 10 -5
    endloop
  endfacet
  facet normal 1 0 0
    outer loop
      vertex 2 12 -2
      vertex 2 9.95442 -4.47906
      vertex 2 9.98481 -4.82635
    endloop
  endfacet
  facet normal 1 0 0
    outer loop
      vertex 2 12 -2
      vertex 2 9.81908 -3.97394
      vertex 2 9.95442 -4.47906
    endloop
  endfacet
  facet normal 1 0 0
    outer loop
      vertex 2 12 -2
      vertex 2 9.67174 -3.65798
      vertex 2 9.81908 -3.97394
    endloop
  endfacet
  facet normal 1 0 0
    outer loop
      vertex 2 12 -2
      vertex 2 9.59808 -3.5
      vertex 2 9.67174 -3.65798
    endloop
  endfacet
  facet normal 1 0 0
    outer loop
      vertex 2 12 -2
      vertex 2 9.49809 -3.35721
      vertex 2 9.59808 -3.5
    endloop
  endfacet
  facet normal 1 0 0
    outer loop
      vertex 2 12 -2
      vertex 2 9.29813 -3.07164
      vertex 2 9.49809 -3.35721
    endloop
  endfacet
  facet normal 1 0 0
    outer loop
      vertex 2 10 0
      vertex 2 8.92836 -2.70187
      vertex 2 9.29813 -3.07164
    endloop
  endfacet
  facet normal 1 0 0
    outer loop
      vertex 2 10 0
      vertex 2 8.5 -2.40192
      vertex 2 8.92836 -2.70187
    endloop
  endfacet
  facet normal 1 0 0
    outer loop
      vertex 2 10 0
      vertex 2 8.02606 -2.18092
      vertex 2 8.5 -2.40192
    endloop
  endfacet
  facet normal 1 0 0
    outer loop
      vertex 2 10 0
      vertex 2 7.52094 -2.04558
      vertex 2 8.02606 -2.18092
    endloop
  endfacet
  facet normal 1 0 0
    outer loop
      vertex 2 10 0
      vertex 2 7.17365 -2.01519
      vertex 2 7.52094 -2.04558
    endloop
  endfacet
  facet normal 1 0 0
    outer loop
      vertex 2 10 0
      vertex 2 7 -2
      vertex 2 7.17365 -2.01519
    endloop
  endfacet
  facet normal 1 0 0
    outer loop
      vertex 2 10 0
      vertex 2 6.82635 -2.01519
      vertex 2 7 -2
    endloop
  endfacet
  facet normal 1 0 0
    outer loop
      vertex 2 10 0
      vertex 2 6.47906 -2.04558
      vertex 2 6.82635 -2.01519
    endloop
  endfacet
  facet normal 1 -0 0
    outer loop
      vertex 2 0 0
      vertex 2 6.47906 -2.04558
      vertex 2 10 0
    endloop
  endfacet
  facet normal 1 0 0
    outer loop
      vertex 2 6.47906 -2.04558
      vertex 2 0 0
      vertex 2 5.97394 -2.18092
    endloop
  endfacet
  facet normal 1 0 0
    outer loop
      vertex 2 4.04558 -4.47906
      vertex 2 0 0
      vertex 2 4 -5
    endloop
  endfacet
  facet normal 1 0 0
    outer loop
      vertex 2 4.18092 -3.97394
      vertex 2 0 0
      vertex 2 4.04558 -4.47906
    endloop
  endfacet
  facet normal 1 0 0
    outer loop
      vertex 2 4.40192 -3.5
      vertex 2 0 0
      vertex 2 4.18092 -3.97394
    endloop
  endfacet
  facet normal 1 0 0
    outer loop
      vertex 2 4.70187 -3.07164
      vertex 2 0 0
      vertex 2 4.40192 -3.5
    endloop
  endfacet
  facet normal 1 0 0
    outer loop
      vertex 2 5.07164 -2.70187
      vertex 2 0 0
      vertex 2 4.70187 -3.07164
    endloop
  endfacet
  facet normal 1 0 0
    outer loop
      vertex 2 5.5 -2.40192
      vertex 2 0 0
      vertex 2 5.07164 -2.70187
    endloop
  endfacet
  facet normal 1 0 0
    outer loop
      vertex 2 5.97394 -2.18092
      vertex 2 0 0
      vertex 2 5.5 -2.40192
    endloop
  endfacet
  facet normal 1 0 0
    outer loop
      vertex 2 9.29813 -3.07164
      vertex 2 12 -2
      vertex 2 10 0
    endloop
  endfacet
  facet normal 1 0 0
    outer loop
      vertex 2 12 -2
      vertex 2 10 -5
      vertex 2 12 -8
    endloop
  endfacet
  facet normal 1 -0 0
    outer loop
      vertex 2 9.96961 -5.3473
      vertex 2 12 -8
      vertex 2 10 -5
    endloop
  endfacet
  facet normal 1 -0 0
    outer loop
      vertex 2 9.95442 -5.52094
      vertex 2 12 -8
      vertex 2 9.96961 -5.3473
    endloop
  endfacet
  facet normal 1 -0 0
    outer loop
      vertex 2 9.81908 -6.02606
      vertex 2 12 -8
      vertex 2 9.95442 -5.52094
    endloop
  endfacet
  facet normal 1 -0 0
    outer loop
      vertex 2 9.74541 -6.18404
      vertex 2 12 -8
      vertex 2 9.81908 -6.02606
    endloop
  endfacet
  facet normal 1 -0 0
    outer loop
      vertex 2 9.59808 -6.5
      vertex 2 12 -8
      vertex 2 9.74541 -6.18404
    endloop
  endfacet
  facet normal 1 -0 0
    outer loop
      vertex 2 9.39811 -6.78557
      vertex 2 12 -8
      vertex 2 9.59808 -6.5
    endloop
  endfacet
  facet normal 1 -0 0
    outer loop
      vertex 2 9.29813 -6.92836
      vertex 2 12 -8
      vertex 2 9.39811 -6.78557
    endloop
  endfacet
  facet normal 1 0 0
    outer loop
      vertex 2 12 -8
      vertex 2 9.29813 -6.92836
      vertex 2 10 -10
    endloop
  endfacet
  facet normal 1 -0 0
    outer loop
      vertex 2 8.92836 -7.29813
      vertex 2 10 -10
      vertex 2 9.29813 -6.92836
    endloop
  endfacet
  facet normal 1 -0 0
    outer loop
      vertex 2 8.5 -7.59808
      vertex 2 10 -10
      vertex 2 8.92836 -7.29813
    endloop
  endfacet
  facet normal 1 -0 0
    outer loop
      vertex 2 8.02606 -7.81908
      vertex 2 10 -10
      vertex 2 8.5 -7.59808
    endloop
  endfacet
  facet normal 1 -0 0
    outer loop
      vertex 2 7.52094 -7.95442
      vertex 2 10 -10
      vertex 2 8.02606 -7.81908
    endloop
  endfacet
  facet normal 1 -0 0
    outer loop
      vertex 2 7.3473 -7.96962
      vertex 2 10 -10
      vertex 2 7.52094 -7.95442
    endloop
  endfacet
  facet normal 1 -0 0
    outer loop
      vertex 2 7 -8
      vertex 2 10 -10
      vertex 2 7.3473 -7.96962
    endloop
  endfacet
  facet normal 1 0 0
    outer loop
      vertex 2 6.6527 -7.96962
      vertex 2 10 -10
      vertex 2 7 -8
    endloop
  endfacet
  facet normal 1 0 0
    outer loop
      vertex 2 6.47906 -7.95442
      vertex 2 10 -10
      vertex 2 6.6527 -7.96962
    endloop
  endfacet
  facet normal 1 0 0
    outer loop
      vertex 2 0 -10
      vertex 2 6.47906 -7.95442
      vertex 2 5.97394 -7.81908
    endloop
  endfacet
  facet normal 1 0 0
    outer loop
      vertex 2 0 -10
      vertex 2 5.97394 -7.81908
      vertex 2 5.5 -7.59808
    endloop
  endfacet
  facet normal 1 0 0
    outer loop
      vertex 2 0 -10
      vertex 2 4 -5
      vertex 2 0 0
    endloop
  endfacet
  facet normal 1 0 0
    outer loop
      vertex 2 4 -5
      vertex 2 0 -10
      vertex 2 4.04558 -5.52094
    endloop
  endfacet
  facet normal 1 0 0
    outer loop
      vertex 2 4.04558 -5.52094
      vertex 2 0 -10
      vertex 2 4.18092 -6.02606
    endloop
  endfacet
  facet normal 1 0 0
    outer loop
      vertex 2 6.47906 -7.95442
      vertex 2 0 -10
      vertex 2 10 -10
    endloop
  endfacet
  facet normal 1 0 0
    outer loop
      vertex 2 5.07164 -7.29813
      vertex 2 0 -10
      vertex 2 5.5 -7.59808
    endloop
  endfacet
  facet normal 1 0 0
    outer loop
      vertex 2 4.70187 -6.92836
      vertex 2 0 -10
      vertex 2 5.07164 -7.29813
    endloop
  endfacet
  facet normal 1 0 0
    outer loop
      vertex 2 4.40192 -6.5
      vertex 2 0 -10
      vertex 2 4.70187 -6.92836
    endloop
  endfacet
  facet normal 1 0 0
    outer loop
      vertex 2 4.18092 -6.02606
      vertex 2 0 -10
      vertex 2 4.40192 -6.5
    endloop
  endfacet
  facet normal 0 1 -0
    outer loop
      vertex 2 12 -8
      vertex 0 12 -2
      vertex 2 12 -2
    endloop
  endfacet
  facet normal 0 1 0
    outer loop
      vertex 0 12 -2
      vertex 2 12 -8
      vertex 0 12 -8
    endloop
  endfacet
  facet normal 0 0.707107 -0.707107
    outer loop
      vertex 2 10 -10
      vertex 0 12 -8
      vertex 2 12 -8
    endloop
  endfacet
  facet normal 0 0.707107 -0.707107
    outer loop
      vertex 0 12 -8
      vertex 2 10 -10
      vertex 0 10 -10
    endloop
  endfacet
  facet normal 0 -0.0871574 0.996195
    outer loop
      vertex 0 7.52094 -7.95442
      vertex 2 7.3473 -7.96962
      vertex 2 7.52094 -7.95442
    endloop
  endfacet
  facet normal 1.18756e-07 -0.087156 0.996195
    outer loop
      vertex 2 7.3473 -7.96962
      vertex 0 7.52094 -7.95442
      vertex 0 7.17365 -7.98481
    endloop
  endfacet
  facet normal 0 -0.0871547 0.996195
    outer loop
      vertex 0 7.17365 -7.98481
      vertex 2 7 -8
      vertex 2 7.3473 -7.96962
    endloop
  endfacet
  facet normal 0 -0.0871547 0.996195
    outer loop
      vertex 2 7 -8
      vertex 0 7.17365 -7.98481
      vertex 0 7 -8
    endloop
  endfacet
  facet normal 2.47901e-07 -0.996195 -0.0871573
    outer loop
      vertex 0 10 -5
      vertex 2 9.98481 -4.82635
      vertex 0 9.96961 -4.6527
    endloop
  endfacet
  facet normal 0 -0.996195 -0.0871544
    outer loop
      vertex 2 9.98481 -4.82635
      vertex 0 10 -5
      vertex 2 10 -5
    endloop
  endfacet
  facet normal 1.26925e-07 -0.819152 0.573577
    outer loop
      vertex 0 9.29813 -6.92836
      vertex 2 9.39811 -6.78557
      vertex 0 9.49809 -6.64279
    endloop
  endfacet
  facet normal 0 -0.819151 0.573578
    outer loop
      vertex 2 9.39811 -6.78557
      vertex 0 9.29813 -6.92836
      vertex 2 9.29813 -6.92836
    endloop
  endfacet
  facet normal -0 0.422619 0.906308
    outer loop
      vertex 0 5.97394 -7.81908
      vertex 2 5.5 -7.59808
      vertex 2 5.97394 -7.81908
    endloop
  endfacet
  facet normal 0 0.422619 0.906308
    outer loop
      vertex 2 5.5 -7.59808
      vertex 0 5.97394 -7.81908
      vertex 0 5.5 -7.59808
    endloop
  endfacet
  facet normal 2.18212e-07 0.0871549 -0.996195
    outer loop
      vertex 0 7 -2
      vertex 2 6.82635 -2.01519
      vertex 0 6.6527 -2.03038
    endloop
  endfacet
  facet normal 1.18756e-07 0.0871537 -0.996195
    outer loop
      vertex 2 6.82635 -2.01519
      vertex 0 7 -2
      vertex 2 7 -2
    endloop
  endfacet
  facet normal 0 -0.422618 -0.906308
    outer loop
      vertex 0 8.02606 -2.18092
      vertex 2 8.5 -2.40192
      vertex 2 8.02606 -2.18092
    endloop
  endfacet
  facet normal -0 -0.422618 -0.906308
    outer loop
      vertex 2 8.5 -2.40192
      vertex 0 8.02606 -2.18092
      vertex 0 8.5 -2.40192
    endloop
  endfacet
  facet normal 0 -0.573577 0.819151
    outer loop
      vertex 0 8.92836 -7.29813
      vertex 2 8.5 -7.59808
      vertex 2 8.92836 -7.29813
    endloop
  endfacet
  facet normal 0 -0.573577 0.819151
    outer loop
      vertex 2 8.5 -7.59808
      vertex 0 8.92836 -7.29813
      vertex 0 8.5 -7.59808
    endloop
  endfacet
  facet normal -0 0.573577 0.819152
    outer loop
      vertex 0 5.5 -7.59808
      vertex 2 5.07164 -7.29813
      vertex 2 5.5 -7.59808
    endloop
  endfacet
  facet normal 0 0.573577 0.819152
    outer loop
      vertex 2 5.07164 -7.29813
      vertex 0 5.5 -7.59808
      vertex 0 5.07164 -7.29813
    endloop
  endfacet
  facet normal 0 -0.965926 -0.258819
    outer loop
      vertex 0 9.95442 -4.47906
      vertex 2 9.81908 -3.97394
      vertex 0 9.81908 -3.97394
    endloop
  endfacet
  facet normal 0 -0.965926 -0.258819
    outer loop
      vertex 2 9.81908 -3.97394
      vertex 0 9.95442 -4.47906
      vertex 2 9.95442 -4.47906
    endloop
  endfacet
  facet normal -1.26926e-07 -0.819153 -0.573576
    outer loop
      vertex 0 9.59808 -3.5
      vertex 2 9.49809 -3.35721
      vertex 0 9.39811 -3.21442
    endloop
  endfacet
  facet normal 1.36752e-07 -0.819151 -0.573578
    outer loop
      vertex 2 9.49809 -3.35721
      vertex 0 9.59808 -3.5
      vertex 2 9.59808 -3.5
    endloop
  endfacet
  facet normal -2.37511e-07 -0.996195 0.0871574
    outer loop
      vertex 0 9.95442 -5.52094
      vertex 2 9.96961 -5.3473
      vertex 0 9.98481 -5.17365
    endloop
  endfacet
  facet normal 0 -0.996195 0.0871547
    outer loop
      vertex 2 9.96961 -5.3473
      vertex 0 9.95442 -5.52094
      vertex 2 9.95442 -5.52094
    endloop
  endfacet
  facet normal 0 -0.258819 0.965926
    outer loop
      vertex 0 8.02606 -7.81908
      vertex 2 7.52094 -7.95442
      vertex 2 8.02606 -7.81908
    endloop
  endfacet
  facet normal 0 -0.258819 0.965926
    outer loop
      vertex 2 7.52094 -7.95442
      vertex 0 8.02606 -7.81908
      vertex 0 7.52094 -7.95442
    endloop
  endfacet
  facet normal 0 0.996195 -0.0871547
    outer loop
      vertex 2 4 -5
      vertex 0 4.04558 -4.47906
      vertex 2 4.04558 -4.47906
    endloop
  endfacet
  facet normal 0 0.996195 -0.0871547
    outer loop
      vertex 0 4.04558 -4.47906
      vertex 2 4 -5
      vertex 0 4 -5
    endloop
  endfacet
  facet normal -0 0.258819 0.965926
    outer loop
      vertex 0 6.47906 -7.95442
      vertex 2 5.97394 -7.81908
      vertex 2 6.47906 -7.95442
    endloop
  endfacet
  facet normal 0 0.258819 0.965926
    outer loop
      vertex 2 5.97394 -7.81908
      vertex 0 6.47906 -7.95442
      vertex 0 5.97394 -7.81908
    endloop
  endfacet
  facet normal 0 -0.996195 -0.0871547
    outer loop
      vertex 0 9.96961 -4.6527
      vertex 2 9.95442 -4.47906
      vertex 0 9.95442 -4.47906
    endloop
  endfacet
  facet normal 2.37511e-07 -0.996195 -0.0871574
    outer loop
      vertex 2 9.95442 -4.47906
      vertex 0 9.96961 -4.6527
      vertex 2 9.98481 -4.82635
    endloop
  endfacet
  facet normal 0 -0.81915 -0.573579
    outer loop
      vertex 0 9.39811 -3.21442
      vertex 2 9.29813 -3.07164
      vertex 0 9.29813 -3.07164
    endloop
  endfacet
  facet normal -2.29489e-07 -0.819152 -0.573577
    outer loop
      vertex 2 9.29813 -3.07164
      vertex 0 9.39811 -3.21442
      vertex 2 9.49809 -3.35721
    endloop
  endfacet
  facet normal 0 -0.965926 0.258819
    outer loop
      vertex 0 9.81908 -6.02606
      vertex 2 9.95442 -5.52094
      vertex 0 9.95442 -5.52094
    endloop
  endfacet
  facet normal 0 -0.965926 0.258819
    outer loop
      vertex 2 9.95442 -5.52094
      vertex 0 9.81908 -6.02606
      vertex 2 9.81908 -6.02606
    endloop
  endfacet
  facet normal 0 -0.996195 0.0871544
    outer loop
      vertex 0 9.98481 -5.17365
      vertex 2 10 -5
      vertex 0 10 -5
    endloop
  endfacet
  facet normal -2.47901e-07 -0.996195 0.0871573
    outer loop
      vertex 2 10 -5
      vertex 0 9.98481 -5.17365
      vertex 2 9.96961 -5.3473
    endloop
  endfacet
  facet normal 0 -0.906307 0.422619
    outer loop
      vertex 0 9.81908 -6.02606
      vertex 2 9.74541 -6.18404
      vertex 2 9.81908 -6.02606
    endloop
  endfacet
  facet normal -2.16081e-07 -0.906308 0.422617
    outer loop
      vertex 2 9.74541 -6.18404
      vertex 0 9.81908 -6.02606
      vertex 0 9.67174 -6.34202
    endloop
  endfacet
  facet normal 0 -0.707107 0.707107
    outer loop
      vertex 0 8.92836 -7.29813
      vertex 2 9.29813 -6.92836
      vertex 0 9.29813 -6.92836
    endloop
  endfacet
  facet normal 0 -0.707107 0.707107
    outer loop
      vertex 2 9.29813 -6.92836
      vertex 0 8.92836 -7.29813
      vertex 2 8.92836 -7.29813
    endloop
  endfacet
  facet normal 0 0.707107 -0.707107
    outer loop
      vertex 2 4.70187 -3.07164
      vertex 0 5.07164 -2.70187
      vertex 2 5.07164 -2.70187
    endloop
  endfacet
  facet normal 0 0.707107 -0.707107
    outer loop
      vertex 0 5.07164 -2.70187
      vertex 2 4.70187 -3.07164
      vertex 0 4.70187 -3.07164
    endloop
  endfacet
  facet normal 0 0.996195 0.0871545
    outer loop
      vertex 2 4.04558 -5.52094
      vertex 0 4 -5
      vertex 2 4 -5
    endloop
  endfacet
  facet normal 0 0.996195 0.0871545
    outer loop
      vertex 0 4 -5
      vertex 2 4.04558 -5.52094
      vertex 0 4.04558 -5.52094
    endloop
  endfacet
  facet normal 0 0.906308 -0.422618
    outer loop
      vertex 2 4.18092 -3.97394
      vertex 0 4.40192 -3.5
      vertex 2 4.40192 -3.5
    endloop
  endfacet
  facet normal 0 0.906308 -0.422618
    outer loop
      vertex 0 4.40192 -3.5
      vertex 2 4.18092 -3.97394
      vertex 0 4.18092 -3.97394
    endloop
  endfacet
  facet normal 0 0.965926 -0.258819
    outer loop
      vertex 2 4.04558 -4.47906
      vertex 0 4.18092 -3.97394
      vertex 2 4.18092 -3.97394
    endloop
  endfacet
  facet normal 0 0.965926 -0.258819
    outer loop
      vertex 0 4.18092 -3.97394
      vertex 2 4.04558 -4.47906
      vertex 0 4.04558 -4.47906
    endloop
  endfacet
  facet normal 0 0.906308 0.422619
    outer loop
      vertex 2 4.40192 -6.5
      vertex 0 4.18092 -6.02606
      vertex 2 4.18092 -6.02606
    endloop
  endfacet
  facet normal 0 0.906308 0.422619
    outer loop
      vertex 0 4.18092 -6.02606
      vertex 2 4.40192 -6.5
      vertex 0 4.40192 -6.5
    endloop
  endfacet
  facet normal 0 0.707107 0.707107
    outer loop
      vertex 2 5.07164 -7.29813
      vertex 0 4.70187 -6.92836
      vertex 2 4.70187 -6.92836
    endloop
  endfacet
  facet normal 0 0.707107 0.707107
    outer loop
      vertex 0 4.70187 -6.92836
      vertex 2 5.07164 -7.29813
      vertex 0 5.07164 -7.29813
    endloop
  endfacet
  facet normal 1.08366e-07 0.0871559 0.996195
    outer loop
      vertex 0 6.47906 -7.95442
      vertex 2 6.6527 -7.96962
      vertex 0 6.82635 -7.98481
    endloop
  endfacet
  facet normal 0 0.0871571 0.996195
    outer loop
      vertex 2 6.6527 -7.96962
      vertex 0 6.47906 -7.95442
      vertex 2 6.47906 -7.95442
    endloop
  endfacet
  facet normal 0 0.0871544 0.996195
    outer loop
      vertex 0 6.82635 -7.98481
      vertex 2 7 -8
      vertex 0 7 -8
    endloop
  endfacet
  facet normal -1.03896e-08 0.0871545 0.996195
    outer loop
      vertex 2 7 -8
      vertex 0 6.82635 -7.98481
      vertex 2 6.6527 -7.96962
    endloop
  endfacet
  facet normal 1.0076e-07 -0.906307 -0.42262
    outer loop
      vertex 0 9.59808 -3.5
      vertex 2 9.67174 -3.65798
      vertex 2 9.59808 -3.5
    endloop
  endfacet
  facet normal 2.91651e-07 -0.906308 -0.422618
    outer loop
      vertex 2 9.67174 -3.65798
      vertex 0 9.59808 -3.5
      vertex 0 9.74541 -3.81596
    endloop
  endfacet
  facet normal 0 -0.422618 0.906308
    outer loop
      vertex 0 8.5 -7.59808
      vertex 2 8.02606 -7.81908
      vertex 2 8.5 -7.59808
    endloop
  endfacet
  facet normal 0 -0.422618 0.906308
    outer loop
      vertex 2 8.02606 -7.81908
      vertex 0 8.5 -7.59808
      vertex 0 8.02606 -7.81908
    endloop
  endfacet
  facet normal 0 -0.906307 0.422621
    outer loop
      vertex 2 9.59808 -6.5
      vertex 0 9.67174 -6.34202
      vertex 0 9.59808 -6.5
    endloop
  endfacet
  facet normal -2.66461e-07 -0.906308 0.422618
    outer loop
      vertex 0 9.67174 -6.34202
      vertex 2 9.59808 -6.5
      vertex 2 9.74541 -6.18404
    endloop
  endfacet
  facet normal 0 -0.819152 0.573577
    outer loop
      vertex 0 9.49809 -6.64279
      vertex 2 9.59808 -6.5
      vertex 0 9.59808 -6.5
    endloop
  endfacet
  facet normal 5.85498e-08 -0.819152 0.573576
    outer loop
      vertex 2 9.59808 -6.5
      vertex 0 9.49809 -6.64279
      vertex 2 9.39811 -6.78557
    endloop
  endfacet
  facet normal 0 -0.258819 -0.965926
    outer loop
      vertex 0 7.52094 -2.04558
      vertex 2 8.02606 -2.18092
      vertex 2 7.52094 -2.04558
    endloop
  endfacet
  facet normal -0 -0.258819 -0.965926
    outer loop
      vertex 2 8.02606 -2.18092
      vertex 0 7.52094 -2.04558
      vertex 0 8.02606 -2.18092
    endloop
  endfacet
  facet normal 1.18756e-07 -0.087154 -0.996195
    outer loop
      vertex 0 7 -2
      vertex 2 7.17365 -2.01519
      vertex 2 7 -2
    endloop
  endfacet
  facet normal 2.07822e-07 -0.087155 -0.996195
    outer loop
      vertex 2 7.17365 -2.01519
      vertex 0 7 -2
      vertex 0 7.3473 -2.03038
    endloop
  endfacet
  facet normal 0 0.573577 -0.819152
    outer loop
      vertex 0 5.07164 -2.70187
      vertex 2 5.5 -2.40192
      vertex 2 5.07164 -2.70187
    endloop
  endfacet
  facet normal 0 0.573577 -0.819152
    outer loop
      vertex 2 5.5 -2.40192
      vertex 0 5.07164 -2.70187
      vertex 0 5.5 -2.40192
    endloop
  endfacet
  facet normal 0 0.422619 -0.906308
    outer loop
      vertex 0 5.5 -2.40192
      vertex 2 5.97394 -2.18092
      vertex 2 5.5 -2.40192
    endloop
  endfacet
  facet normal 0 0.422619 -0.906308
    outer loop
      vertex 2 5.97394 -2.18092
      vertex 0 5.5 -2.40192
      vertex 0 5.97394 -2.18092
    endloop
  endfacet
  facet normal 0 0.819151 -0.573577
    outer loop
      vertex 2 4.40192 -3.5
      vertex 0 4.70187 -3.07164
      vertex 2 4.70187 -3.07164
    endloop
  endfacet
  facet normal 0 0.819151 -0.573577
    outer loop
      vertex 0 4.70187 -3.07164
      vertex 2 4.40192 -3.5
      vertex 0 4.40192 -3.5
    endloop
  endfacet
  facet normal 0 0.258819 -0.965926
    outer loop
      vertex 0 5.97394 -2.18092
      vertex 2 6.47906 -2.04558
      vertex 2 5.97394 -2.18092
    endloop
  endfacet
  facet normal 0 0.258819 -0.965926
    outer loop
      vertex 2 6.47906 -2.04558
      vertex 0 5.97394 -2.18092
      vertex 0 6.47906 -2.04558
    endloop
  endfacet
  facet normal 0 0.0871558 -0.996195
    outer loop
      vertex 0 6.6527 -2.03038
      vertex 2 6.47906 -2.04558
      vertex 0 6.47906 -2.04558
    endloop
  endfacet
  facet normal 6.97677e-08 0.0871566 -0.996195
    outer loop
      vertex 2 6.47906 -2.04558
      vertex 0 6.6527 -2.03038
      vertex 2 6.82635 -2.01519
    endloop
  endfacet
  facet normal 0 0.965926 0.258819
    outer loop
      vertex 2 4.18092 -6.02606
      vertex 0 4.04558 -5.52094
      vertex 2 4.04558 -5.52094
    endloop
  endfacet
  facet normal 0 0.965926 0.258819
    outer loop
      vertex 0 4.04558 -5.52094
      vertex 2 4.18092 -6.02606
      vertex 0 4.18092 -6.02606
    endloop
  endfacet
  facet normal 0 0.819152 0.573577
    outer loop
      vertex 2 4.70187 -6.92836
      vertex 0 4.40192 -6.5
      vertex 2 4.40192 -6.5
    endloop
  endfacet
  facet normal 0 0.819152 0.573577
    outer loop
      vertex 0 4.40192 -6.5
      vertex 2 4.70187 -6.92836
      vertex 0 4.70187 -6.92836
    endloop
  endfacet
  facet normal -0 -0.906307 -0.422619
    outer loop
      vertex 2 9.81908 -3.97394
      vertex 0 9.74541 -3.81596
      vertex 0 9.81908 -3.97394
    endloop
  endfacet
  facet normal 2.16081e-07 -0.906308 -0.422617
    outer loop
      vertex 0 9.74541 -3.81596
      vertex 2 9.81908 -3.97394
      vertex 2 9.67174 -3.65798
    endloop
  endfacet
  facet normal 5.93778e-08 -0.0871567 -0.996195
    outer loop
      vertex 0 7.3473 -2.03038
      vertex 2 7.52094 -2.04558
      vertex 2 7.17365 -2.01519
    endloop
  endfacet
  facet normal -0 -0.087156 -0.996195
    outer loop
      vertex 2 7.52094 -2.04558
      vertex 0 7.3473 -2.03038
      vertex 0 7.52094 -2.04558
    endloop
  endfacet
  facet normal 0 -0.573577 -0.819151
    outer loop
      vertex 0 8.5 -2.40192
      vertex 2 8.92836 -2.70187
      vertex 2 8.5 -2.40192
    endloop
  endfacet
  facet normal -0 -0.573577 -0.819151
    outer loop
      vertex 2 8.92836 -2.70187
      vertex 0 8.5 -2.40192
      vertex 0 8.92836 -2.70187
    endloop
  endfacet
  facet normal 0 -0.707107 -0.707107
    outer loop
      vertex 0 9.29813 -3.07164
      vertex 2 8.92836 -2.70187
      vertex 0 8.92836 -2.70187
    endloop
  endfacet
  facet normal 0 -0.707107 -0.707107
    outer loop
      vertex 2 8.92836 -2.70187
      vertex 0 9.29813 -3.07164
      vertex 2 9.29813 -3.07164
    endloop
  endfacet
  facet normal -0.952926 0 0.303204
    outer loop
      vertex 4 -2 35.8
      vertex 11 0 57.8
      vertex 4 0 35.8
    endloop
  endfacet
  facet normal -0.952926 0 0.303204
    outer loop
      vertex 11 0 57.8
      vertex 4 -2 35.8
      vertex 11 -2 57.8
    endloop
  endfacet
  facet normal 0.640184 0 -0.768221
    outer loop
      vertex 9 -2 -10
      vertex 21 0 0
      vertex 21 -2 0
    endloop
  endfacet
  facet normal 0.640184 0 -0.768221
    outer loop
      vertex 21 0 0
      vertex 9 -2 -10
      vertex 9 0 -10
    endloop
  endfacet
  facet normal -0.707107 0 0.707107
    outer loop
      vertex 0 -2 0
      vertex 4 0 4
      vertex 0 0 0
    endloop
  endfacet
  facet normal -0.707107 0 0.707107
    outer loop
      vertex 4 0 4
      vertex 0 -2 0
      vertex 4 -2 4
    endloop
  endfacet
endsolid OpenSCAD_Model
