solid OpenSCAD_Model
  facet normal -1 0 0
    outer loop
      vertex 0 21.8 0
      vertex 0 20.8 4
      vertex 0 21.8 8.6
    endloop
  endfacet
  facet normal -1 0 0
    outer loop
      vertex 0 21.8 0
      vertex 0 16.8 1
      vertex 0 20.8 4
    endloop
  endfacet
  facet normal -1 0 0
    outer loop
      vertex 0 21.8 0
      vertex 0 14.8 1
      vertex 0 16.8 1
    endloop
  endfacet
  facet normal -1 0 0
    outer loop
      vertex 0 14.8 1
      vertex 0 7 1
      vertex 0 14.8 4
    endloop
  endfacet
  facet normal -1 0 0
    outer loop
      vertex 0 21.8 0
      vertex 0 7 1
      vertex 0 14.8 1
    endloop
  endfacet
  facet normal -1 0 0
    outer loop
      vertex 0 0 0
      vertex 0 7 1
      vertex 0 21.8 0
    endloop
  endfacet
  facet normal -1 0 0
    outer loop
      vertex 0 5 1
      vertex 0 1 4
      vertex 0 5 4
    endloop
  endfacet
  facet normal -1 0 0
    outer loop
      vertex 0 0 8.6
      vertex 0 1 4
      vertex 0 0 0
    endloop
  endfacet
  facet normal -1 -0 0
    outer loop
      vertex 0 5 1
      vertex 0 0 0
      vertex 0 1 4
    endloop
  endfacet
  facet normal -1 -0 0
    outer loop
      vertex 0 7 1
      vertex 0 0 0
      vertex 0 5 1
    endloop
  endfacet
  facet normal -1 0 0
    outer loop
      vertex 0 20.8 7.8
      vertex 0 21.8 8.6
      vertex 0 20.8 4
    endloop
  endfacet
  facet normal -1 0 0
    outer loop
      vertex 0 18.8 8.6
      vertex 0 20.8 7.8
      vertex 0 18.8 7.8
    endloop
  endfacet
  facet normal -1 0 0
    outer loop
      vertex 0 20.8 7.8
      vertex 0 18.8 8.6
      vertex 0 21.8 8.6
    endloop
  endfacet
  facet normal -1 -0 0
    outer loop
      vertex 0 20.8 4
      vertex 0 16.8 1
      vertex 0 16.8 4
    endloop
  endfacet
  facet normal -1 -0 0
    outer loop
      vertex 0 14.8 4
      vertex 0 7 1
      vertex 0 7 4
    endloop
  endfacet
  facet normal -1 0 0
    outer loop
      vertex 0 1 7.8
      vertex 0 3 8.6
      vertex 0 3 7.8
    endloop
  endfacet
  facet normal -1 0 0
    outer loop
      vertex 0 1 7.8
      vertex 0 0 8.6
      vertex 0 3 8.6
    endloop
  endfacet
  facet normal -1 0 0
    outer loop
      vertex 0 1 4
      vertex 0 0 8.6
      vertex 0 1 7.8
    endloop
  endfacet
  facet normal 1 -0 0
    outer loop
      vertex 11.65 0 1.6
      vertex 11.65 21.8 0
      vertex 11.65 21.8 1.6
    endloop
  endfacet
  facet normal 1 0 0
    outer loop
      vertex 11.65 21.8 0
      vertex 11.65 0 1.6
      vertex 11.65 0 0
    endloop
  endfacet
  facet normal 0 1 0
    outer loop
      vertex 11.65 21.8 1.6
      vertex 11.65 21.8 0
      vertex 9.65 21.8 1.6
    endloop
  endfacet
  facet normal 0 1 -0
    outer loop
      vertex 9.65 21.8 8.4
      vertex 0 21.8 8.6
      vertex 9.65 21.8 8.6
    endloop
  endfacet
  facet normal 0 1 -0
    outer loop
      vertex 9.65 21.8 1.6
      vertex 0 21.8 8.6
      vertex 9.65 21.8 8.4
    endloop
  endfacet
  facet normal 0 1 0
    outer loop
      vertex 0 21.8 0
      vertex 9.65 21.8 1.6
      vertex 11.65 21.8 0
    endloop
  endfacet
  facet normal 0 1 0
    outer loop
      vertex 9.65 21.8 1.6
      vertex 0 21.8 0
      vertex 0 21.8 8.6
    endloop
  endfacet
  facet normal 0 0 -1
    outer loop
      vertex 0 0 0
      vertex 11.65 21.8 0
      vertex 11.65 0 0
    endloop
  endfacet
  facet normal -0 0 -1
    outer loop
      vertex 11.65 21.8 0
      vertex 0 0 0
      vertex 0 21.8 0
    endloop
  endfacet
  facet normal 0 -1 0
    outer loop
      vertex 0 0 8.6
      vertex 9.65 0 8.4
      vertex 9.65 0 8.6
    endloop
  endfacet
  facet normal 0 -1 0
    outer loop
      vertex 0 0 8.6
      vertex 9.65 0 1.6
      vertex 9.65 0 8.4
    endloop
  endfacet
  facet normal 0 -1 0
    outer loop
      vertex 0 0 0
      vertex 9.65 0 1.6
      vertex 0 0 8.6
    endloop
  endfacet
  facet normal 0 -1 0
    outer loop
      vertex 11.65 0 0
      vertex 9.65 0 1.6
      vertex 0 0 0
    endloop
  endfacet
  facet normal 0 -1 0
    outer loop
      vertex 9.65 0 1.6
      vertex 11.65 0 0
      vertex 11.65 0 1.6
    endloop
  endfacet
  facet normal -0 0 1
    outer loop
      vertex 0 3 8.6
      vertex 9.65 0 8.6
      vertex 9.65 3 8.6
    endloop
  endfacet
  facet normal 0 0 1
    outer loop
      vertex 9.65 0 8.6
      vertex 0 3 8.6
      vertex 0 0 8.6
    endloop
  endfacet
  facet normal -0 0 1
    outer loop
      vertex 0 21.8 8.6
      vertex 9.65 18.8 8.6
      vertex 9.65 21.8 8.6
    endloop
  endfacet
  facet normal 0 0 1
    outer loop
      vertex 9.65 18.8 8.6
      vertex 0 21.8 8.6
      vertex 0 18.8 8.6
    endloop
  endfacet
  facet normal 1 -0 0
    outer loop
      vertex 9.65 0 8.6
      vertex 9.65 3 8.4
      vertex 9.65 3 8.6
    endloop
  endfacet
  facet normal 1 0 0
    outer loop
      vertex 9.65 3 8.4
      vertex 9.65 0 8.6
      vertex 9.65 0 8.4
    endloop
  endfacet
  facet normal 1 -0 0
    outer loop
      vertex 9.65 18.8 8.6
      vertex 9.65 21.8 8.4
      vertex 9.65 21.8 8.6
    endloop
  endfacet
  facet normal 1 0 0
    outer loop
      vertex 9.65 21.8 8.4
      vertex 9.65 18.8 8.6
      vertex 9.65 18.8 8.4
    endloop
  endfacet
  facet normal 1 0 0
    outer loop
      vertex 9.65 3 8.4
      vertex 9.65 1 7.8
      vertex 9.65 3 7.8
    endloop
  endfacet
  facet normal 1 -0 0
    outer loop
      vertex 9.65 0 8.4
      vertex 9.65 1 7.8
      vertex 9.65 3 8.4
    endloop
  endfacet
  facet normal 1 0 0
    outer loop
      vertex 9.65 0 1.6
      vertex 9.65 1 7.8
      vertex 9.65 0 8.4
    endloop
  endfacet
  facet normal 1 0 0
    outer loop
      vertex 9.65 1 7.8
      vertex 9.65 0 1.6
      vertex 9.65 1 1.6
    endloop
  endfacet
  facet normal 1 0 0
    outer loop
      vertex 9.65 21.8 8.4
      vertex 9.65 20.8 7.8
      vertex 9.65 21.8 1.6
    endloop
  endfacet
  facet normal 1 -0 0
    outer loop
      vertex 9.65 18.8 8.4
      vertex 9.65 20.8 7.8
      vertex 9.65 21.8 8.4
    endloop
  endfacet
  facet normal 1 0 0
    outer loop
      vertex 9.65 20.8 7.8
      vertex 9.65 18.8 8.4
      vertex 9.65 18.8 7.8
    endloop
  endfacet
  facet normal 1 0 0
    outer loop
      vertex 9.65 21.8 1.6
      vertex 9.65 20.8 7.8
      vertex 9.65 20.8 1.6
    endloop
  endfacet
  facet normal -0 0 1
    outer loop
      vertex 0 7 1
      vertex 1 5 1
      vertex 1 7 1
    endloop
  endfacet
  facet normal 0 0 1
    outer loop
      vertex 1 5 1
      vertex 0 7 1
      vertex 0 5 1
    endloop
  endfacet
  facet normal -0 0 1
    outer loop
      vertex 0 16.8 1
      vertex 1 14.8 1
      vertex 1 16.8 1
    endloop
  endfacet
  facet normal 0 0 1
    outer loop
      vertex 1 14.8 1
      vertex 0 16.8 1
      vertex 0 14.8 1
    endloop
  endfacet
  facet normal 0 0 1
    outer loop
      vertex 1 16.8 1
      vertex 10.65 20.8 1
      vertex 1 20.8 1
    endloop
  endfacet
  facet normal 0 0 1
    outer loop
      vertex 1 14.8 1
      vertex 10.65 20.8 1
      vertex 1 16.8 1
    endloop
  endfacet
  facet normal 0 0 1
    outer loop
      vertex 10.65 20.8 1
      vertex 1 14.8 1
      vertex 10.65 1 1
    endloop
  endfacet
  facet normal -0 0 1
    outer loop
      vertex 1 7 1
      vertex 10.65 1 1
      vertex 1 14.8 1
    endloop
  endfacet
  facet normal -0 0 1
    outer loop
      vertex 1 5 1
      vertex 10.65 1 1
      vertex 1 7 1
    endloop
  endfacet
  facet normal 0 0 1
    outer loop
      vertex 10.65 1 1
      vertex 1 5 1
      vertex 1 1 1
    endloop
  endfacet
  facet normal 0 1 -0
    outer loop
      vertex 1 5 1
      vertex 0 5 4
      vertex 1 5 4
    endloop
  endfacet
  facet normal 0 1 0
    outer loop
      vertex 0 5 4
      vertex 1 5 1
      vertex 0 5 1
    endloop
  endfacet
  facet normal 0 -1 0
    outer loop
      vertex 0 7 1
      vertex 1 7 4
      vertex 0 7 4
    endloop
  endfacet
  facet normal 0 -1 -0
    outer loop
      vertex 1 7 4
      vertex 0 7 1
      vertex 1 7 1
    endloop
  endfacet
  facet normal 0 -1 0
    outer loop
      vertex 0 16.8 1
      vertex 1 16.8 4
      vertex 0 16.8 4
    endloop
  endfacet
  facet normal 0 -1 -0
    outer loop
      vertex 1 16.8 4
      vertex 0 16.8 1
      vertex 1 16.8 1
    endloop
  endfacet
  facet normal 0 1 -0
    outer loop
      vertex 1 14.8 1
      vertex 0 14.8 4
      vertex 1 14.8 4
    endloop
  endfacet
  facet normal 0 1 0
    outer loop
      vertex 0 14.8 4
      vertex 1 14.8 1
      vertex 0 14.8 1
    endloop
  endfacet
  facet normal 0 1 -0
    outer loop
      vertex 9.65 3 8.4
      vertex 0 3 8.6
      vertex 9.65 3 8.6
    endloop
  endfacet
  facet normal 0 1 0
    outer loop
      vertex 0 3 7.8
      vertex 9.65 3 8.4
      vertex 9.65 3 7.8
    endloop
  endfacet
  facet normal 0 1 0
    outer loop
      vertex 9.65 3 8.4
      vertex 0 3 7.8
      vertex 0 3 8.6
    endloop
  endfacet
  facet normal 0 -1 0
    outer loop
      vertex 0 18.8 8.6
      vertex 9.65 18.8 8.4
      vertex 9.65 18.8 8.6
    endloop
  endfacet
  facet normal 0 -1 0
    outer loop
      vertex 0 18.8 7.8
      vertex 9.65 18.8 8.4
      vertex 0 18.8 8.6
    endloop
  endfacet
  facet normal 0 -1 -0
    outer loop
      vertex 9.65 18.8 8.4
      vertex 0 18.8 7.8
      vertex 9.65 18.8 7.8
    endloop
  endfacet
  facet normal 0 0 -1
    outer loop
      vertex 0 1 7.8
      vertex 9.65 3 7.8
      vertex 9.65 1 7.8
    endloop
  endfacet
  facet normal -0 0 -1
    outer loop
      vertex 9.65 3 7.8
      vertex 0 1 7.8
      vertex 0 3 7.8
    endloop
  endfacet
  facet normal 0 0 -1
    outer loop
      vertex 0 18.8 7.8
      vertex 9.65 20.8 7.8
      vertex 9.65 18.8 7.8
    endloop
  endfacet
  facet normal -0 0 -1
    outer loop
      vertex 9.65 20.8 7.8
      vertex 0 18.8 7.8
      vertex 0 20.8 7.8
    endloop
  endfacet
  facet normal 0 -1 0
    outer loop
      vertex 1 20.8 4
      vertex 0 20.8 7.8
      vertex 0 20.8 4
    endloop
  endfacet
  facet normal 0 -1 0
    outer loop
      vertex 0 20.8 7.8
      vertex 1 20.8 4
      vertex 9.65 20.8 7.8
    endloop
  endfacet
  facet normal 0 -1 0
    outer loop
      vertex 1 20.8 4
      vertex 9.65 20.8 1.6
      vertex 9.65 20.8 7.8
    endloop
  endfacet
  facet normal 0 -1 0
    outer loop
      vertex 1 20.8 1
      vertex 9.65 20.8 1.6
      vertex 1 20.8 4
    endloop
  endfacet
  facet normal 0 -1 0
    outer loop
      vertex 10.65 20.8 1
      vertex 9.65 20.8 1.6
      vertex 1 20.8 1
    endloop
  endfacet
  facet normal 0 -1 0
    outer loop
      vertex 9.65 20.8 1.6
      vertex 10.65 20.8 1
      vertex 10.65 20.8 1.6
    endloop
  endfacet
  facet normal -0 0 1
    outer loop
      vertex 0 5 4
      vertex 1 1 4
      vertex 1 5 4
    endloop
  endfacet
  facet normal 0 0 1
    outer loop
      vertex 1 1 4
      vertex 0 5 4
      vertex 0 1 4
    endloop
  endfacet
  facet normal -0 0 1
    outer loop
      vertex 0 20.8 4
      vertex 1 16.8 4
      vertex 1 20.8 4
    endloop
  endfacet
  facet normal 0 0 1
    outer loop
      vertex 1 16.8 4
      vertex 0 20.8 4
      vertex 0 16.8 4
    endloop
  endfacet
  facet normal -0 0 1
    outer loop
      vertex 0 14.8 4
      vertex 1 7 4
      vertex 1 14.8 4
    endloop
  endfacet
  facet normal 0 0 1
    outer loop
      vertex 1 7 4
      vertex 0 14.8 4
      vertex 0 7 4
    endloop
  endfacet
  facet normal 0 1 0
    outer loop
      vertex 10.65 1 1.6
      vertex 10.65 1 1
      vertex 9.65 1 1.6
    endloop
  endfacet
  facet normal 0 1 0
    outer loop
      vertex 9.65 1 7.8
      vertex 1 1 4
      vertex 0 1 7.8
    endloop
  endfacet
  facet normal 0 1 -0
    outer loop
      vertex 9.65 1 1.6
      vertex 1 1 4
      vertex 9.65 1 7.8
    endloop
  endfacet
  facet normal 0 1 0
    outer loop
      vertex 1 1 1
      vertex 9.65 1 1.6
      vertex 10.65 1 1
    endloop
  endfacet
  facet normal 0 1 0
    outer loop
      vertex 9.65 1 1.6
      vertex 1 1 1
      vertex 1 1 4
    endloop
  endfacet
  facet normal 0 1 0
    outer loop
      vertex 0 1 7.8
      vertex 1 1 4
      vertex 0 1 4
    endloop
  endfacet
  facet normal 0 0 1
    outer loop
      vertex 11.65 21.8 1.6
      vertex 10.65 20.8 1.6
      vertex 11.65 0 1.6
    endloop
  endfacet
  facet normal -0 0 1
    outer loop
      vertex 9.65 21.8 1.6
      vertex 10.65 20.8 1.6
      vertex 11.65 21.8 1.6
    endloop
  endfacet
  facet normal 0 0 1
    outer loop
      vertex 10.65 20.8 1.6
      vertex 9.65 21.8 1.6
      vertex 9.65 20.8 1.6
    endloop
  endfacet
  facet normal -0 0 1
    outer loop
      vertex 10.65 1 1.6
      vertex 11.65 0 1.6
      vertex 10.65 20.8 1.6
    endloop
  endfacet
  facet normal 0 0 1
    outer loop
      vertex 9.65 0 1.6
      vertex 10.65 1 1.6
      vertex 9.65 1 1.6
    endloop
  endfacet
  facet normal 0 0 1
    outer loop
      vertex 10.65 1 1.6
      vertex 9.65 0 1.6
      vertex 11.65 0 1.6
    endloop
  endfacet
  facet normal 1 -0 0
    outer loop
      vertex 1 16.8 4
      vertex 1 20.8 1
      vertex 1 20.8 4
    endloop
  endfacet
  facet normal 1 0 0
    outer loop
      vertex 1 20.8 1
      vertex 1 16.8 4
      vertex 1 16.8 1
    endloop
  endfacet
  facet normal 1 -0 0
    outer loop
      vertex 1 1 4
      vertex 1 5 1
      vertex 1 5 4
    endloop
  endfacet
  facet normal 1 0 0
    outer loop
      vertex 1 5 1
      vertex 1 1 4
      vertex 1 1 1
    endloop
  endfacet
  facet normal 1 -0 0
    outer loop
      vertex 1 7 4
      vertex 1 14.8 1
      vertex 1 14.8 4
    endloop
  endfacet
  facet normal 1 0 0
    outer loop
      vertex 1 14.8 1
      vertex 1 7 4
      vertex 1 7 1
    endloop
  endfacet
  facet normal -1 0 0
    outer loop
      vertex 10.65 1 1
      vertex 10.65 20.8 1.6
      vertex 10.65 20.8 1
    endloop
  endfacet
  facet normal -1 -0 0
    outer loop
      vertex 10.65 20.8 1.6
      vertex 10.65 1 1
      vertex 10.65 1 1.6
    endloop
  endfacet
endsolid OpenSCAD_Model
