solid OpenSCAD_Model
  facet normal 0 -1 0
    outer loop
      vertex -7 23.2 8.35
      vertex -4 23.2 9.35
      vertex -7 23.2 9.35
    endloop
  endfacet
  facet normal 0 -1 -0
    outer loop
      vertex -4 23.2 9.35
      vertex -7 23.2 8.35
      vertex -4 23.2 8.35
    endloop
  endfacet
  facet normal 0 1 -0
    outer loop
      vertex -4 21.2 8.35
      vertex -7 21.2 9.35
      vertex -4 21.2 9.35
    endloop
  endfacet
  facet normal 0 1 0
    outer loop
      vertex -7 21.2 9.35
      vertex -4 21.2 8.35
      vertex -7 21.2 8.35
    endloop
  endfacet
  facet normal 0 -1 0
    outer loop
      vertex -7 33 8.35
      vertex -4 33 9.35
      vertex -7 33 9.35
    endloop
  endfacet
  facet normal 0 -1 -0
    outer loop
      vertex -4 33 9.35
      vertex -7 33 8.35
      vertex -4 33 8.35
    endloop
  endfacet
  facet normal 0 1 -0
    outer loop
      vertex -4 31 8.35
      vertex -7 31 9.35
      vertex -4 31 9.35
    endloop
  endfacet
  facet normal 0 1 0
    outer loop
      vertex -7 31 9.35
      vertex -4 31 8.35
      vertex -7 31 8.35
    endloop
  endfacet
  facet normal 0 0 -1
    outer loop
      vertex -4 16.2 8.35
      vertex -7 17.2 8.35
      vertex -4 21.2 8.35
    endloop
  endfacet
  facet normal 0 0 -1
    outer loop
      vertex -11.8 16.2 8.35
      vertex -7 17.2 8.35
      vertex -4 16.2 8.35
    endloop
  endfacet
  facet normal -0 0 -1
    outer loop
      vertex -7 17.2 8.35
      vertex -11.8 16.2 8.35
      vertex -10.8 17.2 8.35
    endloop
  endfacet
  facet normal 0 0 -1
    outer loop
      vertex -11.8 18.2 8.35
      vertex -10.8 17.2 8.35
      vertex -11.8 16.2 8.35
    endloop
  endfacet
  facet normal 0 0 -1
    outer loop
      vertex -10.8 17.2 8.35
      vertex -11.8 18.2 8.35
      vertex -10.8 18.2 8.35
    endloop
  endfacet
  facet normal -0 0 -1
    outer loop
      vertex -4 21.2 8.35
      vertex -7 17.2 8.35
      vertex -7 21.2 8.35
    endloop
  endfacet
  facet normal 0 0 -1
    outer loop
      vertex -10.8 36 8.35
      vertex -11.8 36 8.35
      vertex -10.8 37 8.35
    endloop
  endfacet
  facet normal 0 0 -1
    outer loop
      vertex -7 37 8.35
      vertex -4 33 8.35
      vertex -7 33 8.35
    endloop
  endfacet
  facet normal 0 0 -1
    outer loop
      vertex -4 33 8.35
      vertex -7 37 8.35
      vertex -4 38 8.35
    endloop
  endfacet
  facet normal 0 0 -1
    outer loop
      vertex -11.8 38 8.35
      vertex -7 37 8.35
      vertex -10.8 37 8.35
    endloop
  endfacet
  facet normal 0 0 -1
    outer loop
      vertex -7 37 8.35
      vertex -11.8 38 8.35
      vertex -4 38 8.35
    endloop
  endfacet
  facet normal 0 0 -1
    outer loop
      vertex -11.8 38 8.35
      vertex -10.8 37 8.35
      vertex -11.8 36 8.35
    endloop
  endfacet
  facet normal 0 0 -1
    outer loop
      vertex -7 23.2 8.35
      vertex -4 31 8.35
      vertex -4 23.2 8.35
    endloop
  endfacet
  facet normal -0 0 -1
    outer loop
      vertex -4 31 8.35
      vertex -7 23.2 8.35
      vertex -7 31 8.35
    endloop
  endfacet
  facet normal -1 0 0
    outer loop
      vertex -11.8 16.2 8.35
      vertex -11.8 18.2 18
      vertex -11.8 18.2 8.35
    endloop
  endfacet
  facet normal -1 -0 0
    outer loop
      vertex -11.8 18.2 18
      vertex -11.8 16.2 8.35
      vertex -11.8 16.2 18
    endloop
  endfacet
  facet normal -1 0 0
    outer loop
      vertex -11.8 36 8.35
      vertex -11.8 38 18
      vertex -11.8 38 8.35
    endloop
  endfacet
  facet normal -1 -0 0
    outer loop
      vertex -11.8 38 18
      vertex -11.8 36 8.35
      vertex -11.8 36 18
    endloop
  endfacet
  facet normal -0 0 1
    outer loop
      vertex -4.6 38 20
      vertex -4 16.2 20
      vertex -4 38 20
    endloop
  endfacet
  facet normal 0 0 1
    outer loop
      vertex -4 16.2 20
      vertex -4.6 38 20
      vertex -4.6 16.2 20
    endloop
  endfacet
  facet normal 0 -1 0
    outer loop
      vertex -11.8 16.2 18
      vertex -11.8 16.2 8.35
      vertex -4.6 16.2 18
    endloop
  endfacet
  facet normal 0 -1 0
    outer loop
      vertex -4.6 16.2 18
      vertex -4 16.2 20
      vertex -4.6 16.2 20
    endloop
  endfacet
  facet normal 0 -1 0
    outer loop
      vertex -4.6 16.2 18
      vertex -4 16.2 8.35
      vertex -4 16.2 20
    endloop
  endfacet
  facet normal 0 -1 0
    outer loop
      vertex -4 16.2 8.35
      vertex -4.6 16.2 18
      vertex -11.8 16.2 8.35
    endloop
  endfacet
  facet normal 0 1 0
    outer loop
      vertex -4 38 20
      vertex -4.6 38 18
      vertex -4.6 38 20
    endloop
  endfacet
  facet normal 0 1 -0
    outer loop
      vertex -4 38 8.35
      vertex -4.6 38 18
      vertex -4 38 20
    endloop
  endfacet
  facet normal 0 1 0
    outer loop
      vertex -11.8 38 8.35
      vertex -4.6 38 18
      vertex -4 38 8.35
    endloop
  endfacet
  facet normal 0 1 0
    outer loop
      vertex -4.6 38 18
      vertex -11.8 38 8.35
      vertex -11.8 38 18
    endloop
  endfacet
  facet normal 0 -1 0
    outer loop
      vertex -11.8 36 8.35
      vertex -10.8 36 18
      vertex -11.8 36 18
    endloop
  endfacet
  facet normal 0 -1 -0
    outer loop
      vertex -10.8 36 18
      vertex -11.8 36 8.35
      vertex -10.8 36 8.35
    endloop
  endfacet
  facet normal 0 1 -0
    outer loop
      vertex -10.8 18.2 8.35
      vertex -11.8 18.2 18
      vertex -10.8 18.2 18
    endloop
  endfacet
  facet normal 0 1 0
    outer loop
      vertex -11.8 18.2 18
      vertex -10.8 18.2 8.35
      vertex -11.8 18.2 8.35
    endloop
  endfacet
  facet normal 1 -0 0
    outer loop
      vertex -10.8 17.2 18
      vertex -10.8 18.2 8.35
      vertex -10.8 18.2 18
    endloop
  endfacet
  facet normal 1 0 0
    outer loop
      vertex -10.8 18.2 8.35
      vertex -10.8 17.2 18
      vertex -10.8 17.2 8.35
    endloop
  endfacet
  facet normal 1 -0 0
    outer loop
      vertex -10.8 36 18
      vertex -10.8 37 8.35
      vertex -10.8 37 18
    endloop
  endfacet
  facet normal 1 0 0
    outer loop
      vertex -10.8 37 8.35
      vertex -10.8 36 18
      vertex -10.8 36 8.35
    endloop
  endfacet
  facet normal 0 -1 0
    outer loop
      vertex -10.8 37 18
      vertex -7 37 9.35
      vertex -4.6 37 18
    endloop
  endfacet
  facet normal 0 -1 0
    outer loop
      vertex -10.8 37 8.35
      vertex -7 37 9.35
      vertex -10.8 37 18
    endloop
  endfacet
  facet normal 0 -1 -0
    outer loop
      vertex -7 37 9.35
      vertex -10.8 37 8.35
      vertex -7 37 8.35
    endloop
  endfacet
  facet normal 0 -1 0
    outer loop
      vertex -4.6 37 18
      vertex -4 37 19
      vertex -4.6 37 19
    endloop
  endfacet
  facet normal 0 -1 0
    outer loop
      vertex -4 37 9.35
      vertex -4.6 37 18
      vertex -7 37 9.35
    endloop
  endfacet
  facet normal 0 -1 0
    outer loop
      vertex -4.6 37 18
      vertex -4 37 9.35
      vertex -4 37 19
    endloop
  endfacet
  facet normal -1 0 0
    outer loop
      vertex -7 33 8.35
      vertex -7 37 9.35
      vertex -7 37 8.35
    endloop
  endfacet
  facet normal -1 -0 0
    outer loop
      vertex -7 37 9.35
      vertex -7 33 8.35
      vertex -7 33 9.35
    endloop
  endfacet
  facet normal -1 0 0
    outer loop
      vertex -7 17.2 8.35
      vertex -7 21.2 9.35
      vertex -7 21.2 8.35
    endloop
  endfacet
  facet normal -1 -0 0
    outer loop
      vertex -7 21.2 9.35
      vertex -7 17.2 8.35
      vertex -7 17.2 9.35
    endloop
  endfacet
  facet normal -1 0 0
    outer loop
      vertex -7 23.2 8.35
      vertex -7 31 9.35
      vertex -7 31 8.35
    endloop
  endfacet
  facet normal -1 -0 0
    outer loop
      vertex -7 31 9.35
      vertex -7 23.2 8.35
      vertex -7 23.2 9.35
    endloop
  endfacet
  facet normal 0 1 0
    outer loop
      vertex -4 17.2 19
      vertex -4.6 17.2 18
      vertex -4.6 17.2 19
    endloop
  endfacet
  facet normal 0 1 -0
    outer loop
      vertex -4 17.2 9.35
      vertex -4.6 17.2 18
      vertex -4 17.2 19
    endloop
  endfacet
  facet normal 0 1 0
    outer loop
      vertex -7 17.2 9.35
      vertex -4.6 17.2 18
      vertex -4 17.2 9.35
    endloop
  endfacet
  facet normal 0 1 0
    outer loop
      vertex -4.6 17.2 18
      vertex -7 17.2 9.35
      vertex -10.8 17.2 18
    endloop
  endfacet
  facet normal 0 1 0
    outer loop
      vertex -10.8 17.2 8.35
      vertex -7 17.2 9.35
      vertex -7 17.2 8.35
    endloop
  endfacet
  facet normal 0 1 0
    outer loop
      vertex -7 17.2 9.35
      vertex -10.8 17.2 8.35
      vertex -10.8 17.2 18
    endloop
  endfacet
  facet normal 0 0 1
    outer loop
      vertex -10.8 18.2 18
      vertex -11.8 18.2 18
      vertex -10.8 17.2 18
    endloop
  endfacet
  facet normal -0 0 1
    outer loop
      vertex -10.8 17.2 18
      vertex -4.6 16.2 18
      vertex -4.6 17.2 18
    endloop
  endfacet
  facet normal 0 0 1
    outer loop
      vertex -10.8 17.2 18
      vertex -11.8 16.2 18
      vertex -4.6 16.2 18
    endloop
  endfacet
  facet normal 0 0 1
    outer loop
      vertex -11.8 16.2 18
      vertex -10.8 17.2 18
      vertex -11.8 18.2 18
    endloop
  endfacet
  facet normal 0 0 1
    outer loop
      vertex -4.6 38 18
      vertex -10.8 37 18
      vertex -4.6 37 18
    endloop
  endfacet
  facet normal -0 0 1
    outer loop
      vertex -11.8 38 18
      vertex -10.8 37 18
      vertex -4.6 38 18
    endloop
  endfacet
  facet normal 0 0 1
    outer loop
      vertex -11.8 36 18
      vertex -10.8 37 18
      vertex -11.8 38 18
    endloop
  endfacet
  facet normal 0 0 1
    outer loop
      vertex -10.8 37 18
      vertex -11.8 36 18
      vertex -10.8 36 18
    endloop
  endfacet
  facet normal -1 0 0
    outer loop
      vertex -4.6 17.2 18
      vertex -4.6 16.2 18
      vertex -4.6 17.2 19
    endloop
  endfacet
  facet normal -1 0 0
    outer loop
      vertex -4.6 37 19
      vertex -4.6 38 18
      vertex -4.6 37 18
    endloop
  endfacet
  facet normal -1 0 0
    outer loop
      vertex -4.6 38 18
      vertex -4.6 37 19
      vertex -4.6 38 20
    endloop
  endfacet
  facet normal -1 0 0
    outer loop
      vertex -4.6 17.2 19
      vertex -4.6 38 20
      vertex -4.6 37 19
    endloop
  endfacet
  facet normal -1 0 0
    outer loop
      vertex -4.6 17.2 19
      vertex -4.6 16.2 20
      vertex -4.6 38 20
    endloop
  endfacet
  facet normal -1 0 0
    outer loop
      vertex -4.6 16.2 20
      vertex -4.6 17.2 19
      vertex -4.6 16.2 18
    endloop
  endfacet
  facet normal -0 0 1
    outer loop
      vertex -7 37 9.35
      vertex -4 33 9.35
      vertex -4 37 9.35
    endloop
  endfacet
  facet normal 0 0 1
    outer loop
      vertex -4 33 9.35
      vertex -7 37 9.35
      vertex -7 33 9.35
    endloop
  endfacet
  facet normal -0 0 1
    outer loop
      vertex -7 21.2 9.35
      vertex -4 17.2 9.35
      vertex -4 21.2 9.35
    endloop
  endfacet
  facet normal 0 0 1
    outer loop
      vertex -4 17.2 9.35
      vertex -7 21.2 9.35
      vertex -7 17.2 9.35
    endloop
  endfacet
  facet normal -0 0 1
    outer loop
      vertex -7 31 9.35
      vertex -4 23.2 9.35
      vertex -4 31 9.35
    endloop
  endfacet
  facet normal 0 0 1
    outer loop
      vertex -4 23.2 9.35
      vertex -7 31 9.35
      vertex -7 23.2 9.35
    endloop
  endfacet
  facet normal 0 0 -1
    outer loop
      vertex -4.6 17.2 19
      vertex -4 37 19
      vertex -4 17.2 19
    endloop
  endfacet
  facet normal -0 0 -1
    outer loop
      vertex -4 37 19
      vertex -4.6 17.2 19
      vertex -4.6 37 19
    endloop
  endfacet
  facet normal 0 -0.44278 0.89663
    outer loop
      vertex -4 16.2 20
      vertex -2 0 12
      vertex -2 16.2 20
    endloop
  endfacet
  facet normal 0 -0.44278 0.89663
    outer loop
      vertex -2 0 12
      vertex -4 16.2 20
      vertex -4 0 12
    endloop
  endfacet
  facet normal -1 0 0
    outer loop
      vertex -4 8.81908 7.02606
      vertex -4 16.2 8.35
      vertex -4 8.95442 6.52094
    endloop
  endfacet
  facet normal -1 0 0
    outer loop
      vertex -4 8.74541 7.18404
      vertex -4 16.2 8.35
      vertex -4 8.81908 7.02606
    endloop
  endfacet
  facet normal -1 0 0
    outer loop
      vertex -4 8.59808 7.5
      vertex -4 16.2 8.35
      vertex -4 8.74541 7.18404
    endloop
  endfacet
  facet normal -1 0 0
    outer loop
      vertex -4 8.39811 7.78557
      vertex -4 16.2 8.35
      vertex -4 8.59808 7.5
    endloop
  endfacet
  facet normal -1 0 0
    outer loop
      vertex -4 8.29813 7.92836
      vertex -4 16.2 8.35
      vertex -4 8.39811 7.78557
    endloop
  endfacet
  facet normal -1 0 0
    outer loop
      vertex -4 7.92836 8.29813
      vertex -4 16.2 8.35
      vertex -4 8.29813 7.92836
    endloop
  endfacet
  facet normal -1 -0 0
    outer loop
      vertex -4 16.2 8.35
      vertex -4 7.92836 8.29813
      vertex -4 16.2 20
    endloop
  endfacet
  facet normal -1 0 0
    outer loop
      vertex -4 7.5 8.59808
      vertex -4 16.2 20
      vertex -4 7.92836 8.29813
    endloop
  endfacet
  facet normal -1 0 0
    outer loop
      vertex -4 7.02606 8.81908
      vertex -4 16.2 20
      vertex -4 7.5 8.59808
    endloop
  endfacet
  facet normal -1 0 0
    outer loop
      vertex -4 6.52094 8.95442
      vertex -4 16.2 20
      vertex -4 7.02606 8.81908
    endloop
  endfacet
  facet normal -1 0 0
    outer loop
      vertex -4 6 9
      vertex -4 16.2 20
      vertex -4 6.52094 8.95442
    endloop
  endfacet
  facet normal -1 0 0
    outer loop
      vertex -4 0 12
      vertex -4 6 9
      vertex -4 5.47906 8.95442
    endloop
  endfacet
  facet normal -1 0 0
    outer loop
      vertex -4 0 12
      vertex -4 5.47906 8.95442
      vertex -4 4.97394 8.81908
    endloop
  endfacet
  facet normal -1 0 0
    outer loop
      vertex -4 0 12
      vertex -4 4.97394 8.81908
      vertex -4 4.5 8.59808
    endloop
  endfacet
  facet normal -1 0 0
    outer loop
      vertex -4 0 12
      vertex -4 4.5 8.59808
      vertex -4 4.07164 8.29813
    endloop
  endfacet
  facet normal -1 0 0
    outer loop
      vertex -4 0 12
      vertex -4 3 6
      vertex -4 0 0
    endloop
  endfacet
  facet normal -1 0 0
    outer loop
      vertex -4 3 6
      vertex -4 0 12
      vertex -4 3.04558 6.52094
    endloop
  endfacet
  facet normal -1 0 0
    outer loop
      vertex -4 6 9
      vertex -4 0 12
      vertex -4 16.2 20
    endloop
  endfacet
  facet normal -1 0 0
    outer loop
      vertex -4 3.70187 7.92836
      vertex -4 0 12
      vertex -4 4.07164 8.29813
    endloop
  endfacet
  facet normal -1 0 0
    outer loop
      vertex -4 3.40192 7.5
      vertex -4 0 12
      vertex -4 3.70187 7.92836
    endloop
  endfacet
  facet normal -1 0 0
    outer loop
      vertex -4 3.18092 7.02606
      vertex -4 0 12
      vertex -4 3.40192 7.5
    endloop
  endfacet
  facet normal -1 0 0
    outer loop
      vertex -4 3.04558 6.52094
      vertex -4 0 12
      vertex -4 3.18092 7.02606
    endloop
  endfacet
  facet normal -1 0 0
    outer loop
      vertex -4 38 0
      vertex -4 33 8.35
      vertex -4 38 8.35
    endloop
  endfacet
  facet normal -1 0 0
    outer loop
      vertex -4 33 8.35
      vertex -4 31 8.35
      vertex -4 33 9.35
    endloop
  endfacet
  facet normal -1 0 0
    outer loop
      vertex -4 38 0
      vertex -4 31 8.35
      vertex -4 33 8.35
    endloop
  endfacet
  facet normal -1 0 0
    outer loop
      vertex -4 38 0
      vertex -4 23.2 8.35
      vertex -4 31 8.35
    endloop
  endfacet
  facet normal -1 0 0
    outer loop
      vertex -4 23.2 8.35
      vertex -4 21.2 8.35
      vertex -4 23.2 9.35
    endloop
  endfacet
  facet normal -1 0 0
    outer loop
      vertex -4 38 0
      vertex -4 21.2 8.35
      vertex -4 23.2 8.35
    endloop
  endfacet
  facet normal -1 0 0
    outer loop
      vertex -4 7.92836 3.70187
      vertex -4 21.2 8.35
      vertex -4 38 0
    endloop
  endfacet
  facet normal -1 0 0
    outer loop
      vertex -4 8.95442 6.52094
      vertex -4 16.2 8.35
      vertex -4 9 6
    endloop
  endfacet
  facet normal -1 0 -0
    outer loop
      vertex -4 8.29813 4.07164
      vertex -4 21.2 8.35
      vertex -4 7.92836 3.70187
    endloop
  endfacet
  facet normal -1 0 0
    outer loop
      vertex -4 16.2 8.35
      vertex -4 8.95442 5.47906
      vertex -4 9 6
    endloop
  endfacet
  facet normal -1 0 0
    outer loop
      vertex -4 16.2 8.35
      vertex -4 8.81908 4.97394
      vertex -4 8.95442 5.47906
    endloop
  endfacet
  facet normal -1 0 0
    outer loop
      vertex -4 16.2 8.35
      vertex -4 8.59808 4.5
      vertex -4 8.81908 4.97394
    endloop
  endfacet
  facet normal -1 0 0
    outer loop
      vertex -4 16.2 8.35
      vertex -4 8.29813 4.07164
      vertex -4 8.59808 4.5
    endloop
  endfacet
  facet normal -1 -0 0
    outer loop
      vertex -4 21.2 8.35
      vertex -4 8.29813 4.07164
      vertex -4 16.2 8.35
    endloop
  endfacet
  facet normal -1 0 0
    outer loop
      vertex -4 38 0
      vertex -4 7.5 3.40192
      vertex -4 7.92836 3.70187
    endloop
  endfacet
  facet normal -1 0 0
    outer loop
      vertex -4 38 0
      vertex -4 7.02606 3.18092
      vertex -4 7.5 3.40192
    endloop
  endfacet
  facet normal -1 0 0
    outer loop
      vertex -4 0 0
      vertex -4 7.02606 3.18092
      vertex -4 38 0
    endloop
  endfacet
  facet normal -1 0 0
    outer loop
      vertex -4 7.02606 3.18092
      vertex -4 0 0
      vertex -4 6.52094 3.04558
    endloop
  endfacet
  facet normal -1 0 0
    outer loop
      vertex -4 6.52094 3.04558
      vertex -4 0 0
      vertex -4 6 3
    endloop
  endfacet
  facet normal -1 -0 0
    outer loop
      vertex -4 3.04558 5.47906
      vertex -4 0 0
      vertex -4 3 6
    endloop
  endfacet
  facet normal -1 -0 0
    outer loop
      vertex -4 3.18092 4.97394
      vertex -4 0 0
      vertex -4 3.04558 5.47906
    endloop
  endfacet
  facet normal -1 -0 0
    outer loop
      vertex -4 3.40192 4.5
      vertex -4 0 0
      vertex -4 3.18092 4.97394
    endloop
  endfacet
  facet normal -1 -0 0
    outer loop
      vertex -4 3.70187 4.07164
      vertex -4 0 0
      vertex -4 3.40192 4.5
    endloop
  endfacet
  facet normal -1 -0 0
    outer loop
      vertex -4 4.07164 3.70187
      vertex -4 0 0
      vertex -4 3.70187 4.07164
    endloop
  endfacet
  facet normal -1 -0 0
    outer loop
      vertex -4 4.5 3.40192
      vertex -4 0 0
      vertex -4 4.07164 3.70187
    endloop
  endfacet
  facet normal -1 -0 0
    outer loop
      vertex -4 4.97394 3.18092
      vertex -4 0 0
      vertex -4 4.5 3.40192
    endloop
  endfacet
  facet normal -1 -0 0
    outer loop
      vertex -4 5.47906 3.04558
      vertex -4 0 0
      vertex -4 4.97394 3.18092
    endloop
  endfacet
  facet normal -1 -0 0
    outer loop
      vertex -4 6 3
      vertex -4 0 0
      vertex -4 5.47906 3.04558
    endloop
  endfacet
  facet normal -1 0 0
    outer loop
      vertex -4 33 9.35
      vertex -4 37 19
      vertex -4 37 9.35
    endloop
  endfacet
  facet normal -1 0 0
    outer loop
      vertex -4 31 9.35
      vertex -4 33 9.35
      vertex -4 31 8.35
    endloop
  endfacet
  facet normal -1 0 0
    outer loop
      vertex -4 33 9.35
      vertex -4 31 9.35
      vertex -4 37 19
    endloop
  endfacet
  facet normal -1 0 0
    outer loop
      vertex -4 23.2 9.35
      vertex -4 37 19
      vertex -4 31 9.35
    endloop
  endfacet
  facet normal -1 0 0
    outer loop
      vertex -4 21.2 9.35
      vertex -4 23.2 9.35
      vertex -4 21.2 8.35
    endloop
  endfacet
  facet normal -1 0 0
    outer loop
      vertex -4 17.2 19
      vertex -4 23.2 9.35
      vertex -4 21.2 9.35
    endloop
  endfacet
  facet normal -1 0 0
    outer loop
      vertex -4 17.2 19
      vertex -4 21.2 9.35
      vertex -4 17.2 9.35
    endloop
  endfacet
  facet normal -1 0 0
    outer loop
      vertex -4 23.2 9.35
      vertex -4 17.2 19
      vertex -4 37 19
    endloop
  endfacet
  facet normal 0 0 0
    outer loop
      vertex -4 38 8.35
      vertex -4 38 20
      vertex -4 38 0
    endloop
  endfacet
  facet normal 0 0 -1
    outer loop
      vertex -2 0 0
      vertex -4 0 0
      vertex -2 36 0
    endloop
  endfacet
  facet normal 0 0 -1
    outer loop
      vertex 39 36 0
      vertex -2 36 0
      vertex 39 37.2 0
    endloop
  endfacet
  facet normal 0 0 -1
    outer loop
      vertex 42 37.2 0
      vertex 56 36 0
      vertex 42 36 0
    endloop
  endfacet
  facet normal 0 0 -1
    outer loop
      vertex 56 36 0
      vertex 42 37.2 0
      vertex 56 38 0
    endloop
  endfacet
  facet normal 0 0 -1
    outer loop
      vertex 39 37.2 0
      vertex 56 38 0
      vertex 42 37.2 0
    endloop
  endfacet
  facet normal 0 0 -1
    outer loop
      vertex -4 38 0
      vertex 39 37.2 0
      vertex -2 36 0
    endloop
  endfacet
  facet normal 0 0 -1
    outer loop
      vertex 39 37.2 0
      vertex -4 38 0
      vertex 56 38 0
    endloop
  endfacet
  facet normal 0 0 -1
    outer loop
      vertex -4 38 0
      vertex -2 36 0
      vertex -4 0 0
    endloop
  endfacet
  facet normal 0 -1 0
    outer loop
      vertex -4 0 0
      vertex -2 0 12
      vertex -4 0 12
    endloop
  endfacet
  facet normal 0 -1 -0
    outer loop
      vertex -2 0 12
      vertex -4 0 0
      vertex -2 0 0
    endloop
  endfacet
  facet normal -0 0 1
    outer loop
      vertex -4 38 20
      vertex -2 36 20
      vertex -2 38 20
    endloop
  endfacet
  facet normal 0 0 1
    outer loop
      vertex -4 16.2 20
      vertex -2 36 20
      vertex -4 38 20
    endloop
  endfacet
  facet normal 0 0 1
    outer loop
      vertex -2 36 20
      vertex -4 16.2 20
      vertex -2 16.2 20
    endloop
  endfacet
  facet normal 0 1 -0
    outer loop
      vertex 47.7019 38 7.92836
      vertex 42 38 8
      vertex 48.0716 38 8.29813
    endloop
  endfacet
  facet normal 0 1 -0
    outer loop
      vertex 47.4019 38 7.5
      vertex 42 38 8
      vertex 47.7019 38 7.92836
    endloop
  endfacet
  facet normal 0 1 -0
    outer loop
      vertex 47.1809 38 7.02606
      vertex 42 38 8
      vertex 47.4019 38 7.5
    endloop
  endfacet
  facet normal 0 1 -0
    outer loop
      vertex 47.0456 38 6.52094
      vertex 42 38 8
      vertex 47.1809 38 7.02606
    endloop
  endfacet
  facet normal 0 1 -0
    outer loop
      vertex 47 38 6
      vertex 42 38 8
      vertex 47.0456 38 6.52094
    endloop
  endfacet
  facet normal 0 1 0
    outer loop
      vertex 42 38 4
      vertex 47 38 6
      vertex 47.0456 38 5.47906
    endloop
  endfacet
  facet normal 0 1 0
    outer loop
      vertex 42 38 4
      vertex 47.0456 38 5.47906
      vertex 47.1809 38 4.97394
    endloop
  endfacet
  facet normal 0 1 0
    outer loop
      vertex 42 38 4
      vertex 47.1809 38 4.97394
      vertex 47.4019 38 4.5
    endloop
  endfacet
  facet normal 0 1 0
    outer loop
      vertex 42 38 4
      vertex 47.4019 38 4.5
      vertex 47.7019 38 4.07164
    endloop
  endfacet
  facet normal 0 1 0
    outer loop
      vertex 47 38 6
      vertex 42 38 4
      vertex 42 38 8
    endloop
  endfacet
  facet normal 0 1 0
    outer loop
      vertex 48.5 38 3.40192
      vertex 42 38 4
      vertex 48.0716 38 3.70187
    endloop
  endfacet
  facet normal 0 1 0
    outer loop
      vertex 48.0716 38 3.70187
      vertex 42 38 4
      vertex 47.7019 38 4.07164
    endloop
  endfacet
  facet normal 0 1 0
    outer loop
      vertex 56 38 12
      vertex 50.5209 38 8.95442
      vertex 50 38 9
    endloop
  endfacet
  facet normal 0 1 0
    outer loop
      vertex 56 38 12
      vertex 51.0261 38 8.81908
      vertex 50.5209 38 8.95442
    endloop
  endfacet
  facet normal 0 1 0
    outer loop
      vertex 56 38 12
      vertex 51.5 38 8.59808
      vertex 51.0261 38 8.81908
    endloop
  endfacet
  facet normal 0 1 0
    outer loop
      vertex 56 38 12
      vertex 51.9284 38 8.29813
      vertex 51.5 38 8.59808
    endloop
  endfacet
  facet normal 0 1 0
    outer loop
      vertex 56 38 12
      vertex 52.2981 38 7.92836
      vertex 51.9284 38 8.29813
    endloop
  endfacet
  facet normal 0 1 0
    outer loop
      vertex 56 38 12
      vertex 52.5981 38 7.5
      vertex 52.2981 38 7.92836
    endloop
  endfacet
  facet normal 0 1 0
    outer loop
      vertex 56 38 12
      vertex 52.8191 38 7.02606
      vertex 52.5981 38 7.5
    endloop
  endfacet
  facet normal 0 1 0
    outer loop
      vertex 56 38 12
      vertex 52.9544 38 6.52094
      vertex 52.8191 38 7.02606
    endloop
  endfacet
  facet normal 0 1 0
    outer loop
      vertex 56 38 12
      vertex 53 38 6
      vertex 52.9544 38 6.52094
    endloop
  endfacet
  facet normal 0 1 -0
    outer loop
      vertex 56 38 0
      vertex 53 38 6
      vertex 56 38 12
    endloop
  endfacet
  facet normal 0 1 0
    outer loop
      vertex 53 38 6
      vertex 56 38 0
      vertex 52.9544 38 5.47906
    endloop
  endfacet
  facet normal 0 1 0
    outer loop
      vertex 50.5209 38 3.04558
      vertex 56 38 0
      vertex 50 38 3
    endloop
  endfacet
  facet normal 0 1 0
    outer loop
      vertex 51.0261 38 3.18092
      vertex 56 38 0
      vertex 50.5209 38 3.04558
    endloop
  endfacet
  facet normal 0 1 0
    outer loop
      vertex 51.5 38 3.40192
      vertex 56 38 0
      vertex 51.0261 38 3.18092
    endloop
  endfacet
  facet normal 0 1 0
    outer loop
      vertex 51.9284 38 3.70187
      vertex 56 38 0
      vertex 51.5 38 3.40192
    endloop
  endfacet
  facet normal 0 1 0
    outer loop
      vertex 52.2981 38 4.07164
      vertex 56 38 0
      vertex 51.9284 38 3.70187
    endloop
  endfacet
  facet normal 0 1 0
    outer loop
      vertex 52.5981 38 4.5
      vertex 56 38 0
      vertex 52.2981 38 4.07164
    endloop
  endfacet
  facet normal 0 1 0
    outer loop
      vertex 52.8191 38 4.97394
      vertex 56 38 0
      vertex 52.5981 38 4.5
    endloop
  endfacet
  facet normal 0 1 0
    outer loop
      vertex 52.9544 38 5.47906
      vertex 56 38 0
      vertex 52.8191 38 4.97394
    endloop
  endfacet
  facet normal 0 1 -0
    outer loop
      vertex 39 38 8
      vertex -2 38 20
      vertex 56 38 12
    endloop
  endfacet
  facet normal 0 1 0
    outer loop
      vertex 49.4791 38 8.95442
      vertex 56 38 12
      vertex 50 38 9
    endloop
  endfacet
  facet normal 0 1 0
    outer loop
      vertex 48.9739 38 8.81908
      vertex 56 38 12
      vertex 49.4791 38 8.95442
    endloop
  endfacet
  facet normal 0 1 0
    outer loop
      vertex 56 38 12
      vertex 48.9739 38 8.81908
      vertex 42 38 8
    endloop
  endfacet
  facet normal 0 1 0
    outer loop
      vertex 42 38 8
      vertex 48.9739 38 8.81908
      vertex 48.5 38 8.59808
    endloop
  endfacet
  facet normal 0 1 0
    outer loop
      vertex 42 38 8
      vertex 48.5 38 8.59808
      vertex 48.0716 38 8.29813
    endloop
  endfacet
  facet normal 0 1 0
    outer loop
      vertex 56 38 12
      vertex 42 38 8
      vertex 39 38 8
    endloop
  endfacet
  facet normal 0 1 0
    outer loop
      vertex -4 38 0
      vertex -2 38 20
      vertex 39 38 8
    endloop
  endfacet
  facet normal 0 1 0
    outer loop
      vertex -4 38 0
      vertex 39 38 8
      vertex 39 38 4
    endloop
  endfacet
  facet normal 0 1 0
    outer loop
      vertex 48.9739 38 3.18092
      vertex 42 38 4
      vertex 48.5 38 3.40192
    endloop
  endfacet
  facet normal 0 1 0
    outer loop
      vertex 56 38 0
      vertex 42 38 4
      vertex 48.9739 38 3.18092
    endloop
  endfacet
  facet normal 0 1 0
    outer loop
      vertex 56 38 0
      vertex 48.9739 38 3.18092
      vertex 49.4791 38 3.04558
    endloop
  endfacet
  facet normal 0 1 0
    outer loop
      vertex 56 38 0
      vertex 49.4791 38 3.04558
      vertex 50 38 3
    endloop
  endfacet
  facet normal 0 1 0
    outer loop
      vertex 42 38 4
      vertex 56 38 0
      vertex 39 38 4
    endloop
  endfacet
  facet normal 0 1 0
    outer loop
      vertex -2 38 20
      vertex -4 38 0
      vertex -4 38 20
    endloop
  endfacet
  facet normal 0 1 0
    outer loop
      vertex -4 38 0
      vertex 39 38 4
      vertex 56 38 0
    endloop
  endfacet
  facet normal 1 0 0
    outer loop
      vertex -2 16.2 20
      vertex -2 8.95442 6.52094
      vertex -2 9 6
    endloop
  endfacet
  facet normal 1 0 0
    outer loop
      vertex -2 16.2 20
      vertex -2 8.81908 7.02606
      vertex -2 8.95442 6.52094
    endloop
  endfacet
  facet normal 1 0 0
    outer loop
      vertex -2 16.2 20
      vertex -2 8.67174 7.34202
      vertex -2 8.81908 7.02606
    endloop
  endfacet
  facet normal 1 0 0
    outer loop
      vertex -2 16.2 20
      vertex -2 8.59808 7.5
      vertex -2 8.67174 7.34202
    endloop
  endfacet
  facet normal 1 0 0
    outer loop
      vertex -2 16.2 20
      vertex -2 8.49809 7.64279
      vertex -2 8.59808 7.5
    endloop
  endfacet
  facet normal 1 0 0
    outer loop
      vertex -2 16.2 20
      vertex -2 8.29813 7.92836
      vertex -2 8.49809 7.64279
    endloop
  endfacet
  facet normal 1 0 0
    outer loop
      vertex -2 16.2 20
      vertex -2 7.92836 8.29813
      vertex -2 8.29813 7.92836
    endloop
  endfacet
  facet normal 1 0 0
    outer loop
      vertex -2 16.2 20
      vertex -2 7.5 8.59808
      vertex -2 7.92836 8.29813
    endloop
  endfacet
  facet normal 1 0 0
    outer loop
      vertex -2 16.2 20
      vertex -2 7.02606 8.81908
      vertex -2 7.5 8.59808
    endloop
  endfacet
  facet normal 1 0 0
    outer loop
      vertex -2 16.2 20
      vertex -2 6.52094 8.95442
      vertex -2 7.02606 8.81908
    endloop
  endfacet
  facet normal 1 0 0
    outer loop
      vertex -2 16.2 20
      vertex -2 6 9
      vertex -2 6.52094 8.95442
    endloop
  endfacet
  facet normal 1 -0 0
    outer loop
      vertex -2 0 12
      vertex -2 6 9
      vertex -2 16.2 20
    endloop
  endfacet
  facet normal 1 0 0
    outer loop
      vertex -2 6 9
      vertex -2 0 12
      vertex -2 5.47906 8.95442
    endloop
  endfacet
  facet normal 1 0 0
    outer loop
      vertex -2 5.47906 8.95442
      vertex -2 0 12
      vertex -2 4.97394 8.81908
    endloop
  endfacet
  facet normal 1 0 0
    outer loop
      vertex -2 4.97394 8.81908
      vertex -2 0 12
      vertex -2 4.5 8.59808
    endloop
  endfacet
  facet normal 1 0 0
    outer loop
      vertex -2 3.04558 6.52094
      vertex -2 0 12
      vertex -2 3 6
    endloop
  endfacet
  facet normal 1 0 0
    outer loop
      vertex -2 3.18092 7.02606
      vertex -2 0 12
      vertex -2 3.04558 6.52094
    endloop
  endfacet
  facet normal 1 0 0
    outer loop
      vertex -2 3.40192 7.5
      vertex -2 0 12
      vertex -2 3.18092 7.02606
    endloop
  endfacet
  facet normal 1 0 0
    outer loop
      vertex -2 3.70187 7.92836
      vertex -2 0 12
      vertex -2 3.40192 7.5
    endloop
  endfacet
  facet normal 1 0 0
    outer loop
      vertex -2 4.07164 8.29813
      vertex -2 0 12
      vertex -2 3.70187 7.92836
    endloop
  endfacet
  facet normal 1 0 0
    outer loop
      vertex -2 4.5 8.59808
      vertex -2 0 12
      vertex -2 4.07164 8.29813
    endloop
  endfacet
  facet normal 1 -0 0
    outer loop
      vertex -2 16.2 20
      vertex -2 36 0
      vertex -2 36 20
    endloop
  endfacet
  facet normal 1 -0 0
    outer loop
      vertex -2 9 6
      vertex -2 36 0
      vertex -2 16.2 20
    endloop
  endfacet
  facet normal 1 -0 0
    outer loop
      vertex -2 8.95442 5.47906
      vertex -2 36 0
      vertex -2 9 6
    endloop
  endfacet
  facet normal 1 -0 0
    outer loop
      vertex -2 8.81908 4.97394
      vertex -2 36 0
      vertex -2 8.95442 5.47906
    endloop
  endfacet
  facet normal 1 -0 0
    outer loop
      vertex -2 8.59808 4.5
      vertex -2 36 0
      vertex -2 8.81908 4.97394
    endloop
  endfacet
  facet normal 1 -0 0
    outer loop
      vertex -2 8.29813 4.07164
      vertex -2 36 0
      vertex -2 8.59808 4.5
    endloop
  endfacet
  facet normal 1 -0 0
    outer loop
      vertex -2 7.92836 3.70187
      vertex -2 36 0
      vertex -2 8.29813 4.07164
    endloop
  endfacet
  facet normal 1 -0 0
    outer loop
      vertex -2 7.5 3.40192
      vertex -2 36 0
      vertex -2 7.92836 3.70187
    endloop
  endfacet
  facet normal 1 -0 0
    outer loop
      vertex -2 7.02606 3.18092
      vertex -2 36 0
      vertex -2 7.5 3.40192
    endloop
  endfacet
  facet normal 1 0 0
    outer loop
      vertex -2 0 0
      vertex -2 7.02606 3.18092
      vertex -2 6.52094 3.04558
    endloop
  endfacet
  facet normal 1 0 0
    outer loop
      vertex -2 0 0
      vertex -2 6.52094 3.04558
      vertex -2 6 3
    endloop
  endfacet
  facet normal 1 0 0
    outer loop
      vertex -2 0 0
      vertex -2 6 3
      vertex -2 5.47906 3.04558
    endloop
  endfacet
  facet normal 1 0 0
    outer loop
      vertex -2 0 0
      vertex -2 3 6
      vertex -2 0 12
    endloop
  endfacet
  facet normal 1 0 0
    outer loop
      vertex -2 3 6
      vertex -2 0 0
      vertex -2 3.04558 5.47906
    endloop
  endfacet
  facet normal 1 0 0
    outer loop
      vertex -2 7.02606 3.18092
      vertex -2 0 0
      vertex -2 36 0
    endloop
  endfacet
  facet normal 1 0 0
    outer loop
      vertex -2 4.97394 3.18092
      vertex -2 0 0
      vertex -2 5.47906 3.04558
    endloop
  endfacet
  facet normal 1 0 0
    outer loop
      vertex -2 4.5 3.40192
      vertex -2 0 0
      vertex -2 4.97394 3.18092
    endloop
  endfacet
  facet normal 1 0 0
    outer loop
      vertex -2 4.07164 3.70187
      vertex -2 0 0
      vertex -2 4.5 3.40192
    endloop
  endfacet
  facet normal 1 0 0
    outer loop
      vertex -2 3.70187 4.07164
      vertex -2 0 0
      vertex -2 4.07164 3.70187
    endloop
  endfacet
  facet normal 1 0 0
    outer loop
      vertex -2 3.40192 4.5
      vertex -2 0 0
      vertex -2 3.70187 4.07164
    endloop
  endfacet
  facet normal 1 0 0
    outer loop
      vertex -2 3.18092 4.97394
      vertex -2 0 0
      vertex -2 3.40192 4.5
    endloop
  endfacet
  facet normal 1 0 0
    outer loop
      vertex -2 3.04558 5.47906
      vertex -2 0 0
      vertex -2 3.18092 4.97394
    endloop
  endfacet
  facet normal 0 -0.0871547 0.996195
    outer loop
      vertex -4 6.52094 3.04558
      vertex -2 6 3
      vertex -2 6.52094 3.04558
    endloop
  endfacet
  facet normal 0 -0.0871547 0.996195
    outer loop
      vertex -2 6 3
      vertex -4 6.52094 3.04558
      vertex -4 6 3
    endloop
  endfacet
  facet normal 0 -0.0871565 -0.996195
    outer loop
      vertex -4 6 9
      vertex -2 6.52094 8.95442
      vertex -2 6 9
    endloop
  endfacet
  facet normal -0 -0.0871565 -0.996195
    outer loop
      vertex -2 6.52094 8.95442
      vertex -4 6 9
      vertex -4 6.52094 8.95442
    endloop
  endfacet
  facet normal 0 0.996195 0.0871545
    outer loop
      vertex -2 3.04558 5.47906
      vertex -4 3 6
      vertex -2 3 6
    endloop
  endfacet
  facet normal 0 0.996195 0.0871545
    outer loop
      vertex -4 3 6
      vertex -2 3.04558 5.47906
      vertex -4 3.04558 5.47906
    endloop
  endfacet
  facet normal 0 -0.573577 -0.819151
    outer loop
      vertex -4 7.5 8.59808
      vertex -2 7.92836 8.29813
      vertex -2 7.5 8.59808
    endloop
  endfacet
  facet normal -0 -0.573577 -0.819151
    outer loop
      vertex -2 7.92836 8.29813
      vertex -4 7.5 8.59808
      vertex -4 7.92836 8.29813
    endloop
  endfacet
  facet normal -0 0.573577 0.819152
    outer loop
      vertex -4 4.5 3.40192
      vertex -2 4.07164 3.70187
      vertex -2 4.5 3.40192
    endloop
  endfacet
  facet normal 0 0.573577 0.819152
    outer loop
      vertex -2 4.07164 3.70187
      vertex -4 4.5 3.40192
      vertex -4 4.07164 3.70187
    endloop
  endfacet
  facet normal 0 -0.965926 -0.258819
    outer loop
      vertex -4 8.95442 6.52094
      vertex -2 8.81908 7.02606
      vertex -4 8.81908 7.02606
    endloop
  endfacet
  facet normal 0 -0.965926 -0.258819
    outer loop
      vertex -2 8.81908 7.02606
      vertex -4 8.95442 6.52094
      vertex -2 8.95442 6.52094
    endloop
  endfacet
  facet normal 0 -0.996195 -0.0871565
    outer loop
      vertex -4 9 6
      vertex -2 8.95442 6.52094
      vertex -4 8.95442 6.52094
    endloop
  endfacet
  facet normal 0 -0.996195 -0.0871565
    outer loop
      vertex -2 8.95442 6.52094
      vertex -4 9 6
      vertex -2 9 6
    endloop
  endfacet
  facet normal 0 -0.422618 -0.906308
    outer loop
      vertex -4 7.02606 8.81908
      vertex -2 7.5 8.59808
      vertex -2 7.02606 8.81908
    endloop
  endfacet
  facet normal -0 -0.422618 -0.906308
    outer loop
      vertex -2 7.5 8.59808
      vertex -4 7.02606 8.81908
      vertex -4 7.5 8.59808
    endloop
  endfacet
  facet normal -0 0.0871545 0.996195
    outer loop
      vertex -4 6 3
      vertex -2 5.47906 3.04558
      vertex -2 6 3
    endloop
  endfacet
  facet normal 0 0.0871545 0.996195
    outer loop
      vertex -2 5.47906 3.04558
      vertex -4 6 3
      vertex -4 5.47906 3.04558
    endloop
  endfacet
  facet normal 0 -0.258819 -0.965926
    outer loop
      vertex -4 6.52094 8.95442
      vertex -2 7.02606 8.81908
      vertex -2 6.52094 8.95442
    endloop
  endfacet
  facet normal -0 -0.258819 -0.965926
    outer loop
      vertex -2 7.02606 8.81908
      vertex -4 6.52094 8.95442
      vertex -4 7.02606 8.81908
    endloop
  endfacet
  facet normal 0 -0.573577 0.819151
    outer loop
      vertex -4 7.92836 3.70187
      vertex -2 7.5 3.40192
      vertex -2 7.92836 3.70187
    endloop
  endfacet
  facet normal 0 -0.573577 0.819151
    outer loop
      vertex -2 7.5 3.40192
      vertex -4 7.92836 3.70187
      vertex -4 7.5 3.40192
    endloop
  endfacet
  facet normal 0 -0.258819 0.965926
    outer loop
      vertex -4 7.02606 3.18092
      vertex -2 6.52094 3.04558
      vertex -2 7.02606 3.18092
    endloop
  endfacet
  facet normal 0 -0.258819 0.965926
    outer loop
      vertex -2 6.52094 3.04558
      vertex -4 7.02606 3.18092
      vertex -4 6.52094 3.04558
    endloop
  endfacet
  facet normal 0 -0.819152 0.573577
    outer loop
      vertex -4 8.29813 4.07164
      vertex -2 8.59808 4.5
      vertex -4 8.59808 4.5
    endloop
  endfacet
  facet normal 0 -0.819152 0.573577
    outer loop
      vertex -2 8.59808 4.5
      vertex -4 8.29813 4.07164
      vertex -2 8.29813 4.07164
    endloop
  endfacet
  facet normal 0 -0.965926 0.258819
    outer loop
      vertex -4 8.81908 4.97394
      vertex -2 8.95442 5.47906
      vertex -4 8.95442 5.47906
    endloop
  endfacet
  facet normal 0 -0.965926 0.258819
    outer loop
      vertex -2 8.95442 5.47906
      vertex -4 8.81908 4.97394
      vertex -2 8.81908 4.97394
    endloop
  endfacet
  facet normal -0 -0.906307 -0.422619
    outer loop
      vertex -2 8.81908 7.02606
      vertex -4 8.74541 7.18404
      vertex -4 8.81908 7.02606
    endloop
  endfacet
  facet normal 2.16081e-07 -0.906308 -0.422617
    outer loop
      vertex -4 8.74541 7.18404
      vertex -2 8.81908 7.02606
      vertex -2 8.67174 7.34202
    endloop
  endfacet
  facet normal 0 -0.819151 -0.573578
    outer loop
      vertex -4 8.39811 7.78557
      vertex -2 8.29813 7.92836
      vertex -4 8.29813 7.92836
    endloop
  endfacet
  facet normal -1.26925e-07 -0.819152 -0.573577
    outer loop
      vertex -2 8.29813 7.92836
      vertex -4 8.39811 7.78557
      vertex -2 8.49809 7.64279
    endloop
  endfacet
  facet normal 0 0.707107 0.707107
    outer loop
      vertex -2 4.07164 3.70187
      vertex -4 3.70187 4.07164
      vertex -2 3.70187 4.07164
    endloop
  endfacet
  facet normal 0 0.707107 0.707107
    outer loop
      vertex -4 3.70187 4.07164
      vertex -2 4.07164 3.70187
      vertex -4 4.07164 3.70187
    endloop
  endfacet
  facet normal 0 0.965926 0.258819
    outer loop
      vertex -2 3.18092 4.97394
      vertex -4 3.04558 5.47906
      vertex -2 3.04558 5.47906
    endloop
  endfacet
  facet normal 0 0.965926 0.258819
    outer loop
      vertex -4 3.04558 5.47906
      vertex -2 3.18092 4.97394
      vertex -4 3.18092 4.97394
    endloop
  endfacet
  facet normal 0 0.819152 0.573577
    outer loop
      vertex -2 3.70187 4.07164
      vertex -4 3.40192 4.5
      vertex -2 3.40192 4.5
    endloop
  endfacet
  facet normal 0 0.819152 0.573577
    outer loop
      vertex -4 3.40192 4.5
      vertex -2 3.70187 4.07164
      vertex -4 3.70187 4.07164
    endloop
  endfacet
  facet normal -0 0.422619 0.906308
    outer loop
      vertex -4 4.97394 3.18092
      vertex -2 4.5 3.40192
      vertex -2 4.97394 3.18092
    endloop
  endfacet
  facet normal 0 0.422619 0.906308
    outer loop
      vertex -2 4.5 3.40192
      vertex -4 4.97394 3.18092
      vertex -4 4.5 3.40192
    endloop
  endfacet
  facet normal -0 0.258819 0.965926
    outer loop
      vertex -4 5.47906 3.04558
      vertex -2 4.97394 3.18092
      vertex -2 5.47906 3.04558
    endloop
  endfacet
  facet normal 0 0.258819 0.965926
    outer loop
      vertex -2 4.97394 3.18092
      vertex -4 5.47906 3.04558
      vertex -4 4.97394 3.18092
    endloop
  endfacet
  facet normal 0 -0.422618 0.906308
    outer loop
      vertex -4 7.5 3.40192
      vertex -2 7.02606 3.18092
      vertex -2 7.5 3.40192
    endloop
  endfacet
  facet normal 0 -0.422618 0.906308
    outer loop
      vertex -2 7.02606 3.18092
      vertex -4 7.5 3.40192
      vertex -4 7.02606 3.18092
    endloop
  endfacet
  facet normal 0 -0.707107 0.707107
    outer loop
      vertex -4 7.92836 3.70187
      vertex -2 8.29813 4.07164
      vertex -4 8.29813 4.07164
    endloop
  endfacet
  facet normal 0 -0.707107 0.707107
    outer loop
      vertex -2 8.29813 4.07164
      vertex -4 7.92836 3.70187
      vertex -2 7.92836 3.70187
    endloop
  endfacet
  facet normal 0 -0.906308 0.422619
    outer loop
      vertex -4 8.59808 4.5
      vertex -2 8.81908 4.97394
      vertex -4 8.81908 4.97394
    endloop
  endfacet
  facet normal 0 -0.906308 0.422619
    outer loop
      vertex -2 8.81908 4.97394
      vertex -4 8.59808 4.5
      vertex -2 8.59808 4.5
    endloop
  endfacet
  facet normal 0 -0.996195 0.0871563
    outer loop
      vertex -4 8.95442 5.47906
      vertex -2 9 6
      vertex -4 9 6
    endloop
  endfacet
  facet normal 0 -0.996195 0.0871563
    outer loop
      vertex -2 9 6
      vertex -4 8.95442 5.47906
      vertex -2 8.95442 5.47906
    endloop
  endfacet
  facet normal 0 -0.707107 -0.707107
    outer loop
      vertex -4 8.29813 7.92836
      vertex -2 7.92836 8.29813
      vertex -4 7.92836 8.29813
    endloop
  endfacet
  facet normal 0 -0.707107 -0.707107
    outer loop
      vertex -2 7.92836 8.29813
      vertex -4 8.29813 7.92836
      vertex -2 8.29813 7.92836
    endloop
  endfacet
  facet normal -5.85498e-08 -0.819152 -0.573576
    outer loop
      vertex -4 8.59808 7.5
      vertex -2 8.49809 7.64279
      vertex -4 8.39811 7.78557
    endloop
  endfacet
  facet normal 0 -0.819152 -0.573577
    outer loop
      vertex -2 8.49809 7.64279
      vertex -4 8.59808 7.5
      vertex -2 8.59808 7.5
    endloop
  endfacet
  facet normal 0 -0.906307 -0.422621
    outer loop
      vertex -4 8.59808 7.5
      vertex -2 8.67174 7.34202
      vertex -2 8.59808 7.5
    endloop
  endfacet
  facet normal 2.66461e-07 -0.906308 -0.422618
    outer loop
      vertex -2 8.67174 7.34202
      vertex -4 8.59808 7.5
      vertex -4 8.74541 7.18404
    endloop
  endfacet
  facet normal 0 0.996195 -0.0871547
    outer loop
      vertex -2 3 6
      vertex -4 3.04558 6.52094
      vertex -2 3.04558 6.52094
    endloop
  endfacet
  facet normal 0 0.996195 -0.0871547
    outer loop
      vertex -4 3.04558 6.52094
      vertex -2 3 6
      vertex -4 3 6
    endloop
  endfacet
  facet normal 0 0.906308 0.422619
    outer loop
      vertex -2 3.40192 4.5
      vertex -4 3.18092 4.97394
      vertex -2 3.18092 4.97394
    endloop
  endfacet
  facet normal 0 0.906308 0.422619
    outer loop
      vertex -4 3.18092 4.97394
      vertex -2 3.40192 4.5
      vertex -4 3.40192 4.5
    endloop
  endfacet
  facet normal 0 0.707107 -0.707107
    outer loop
      vertex -2 3.70187 7.92836
      vertex -4 4.07164 8.29813
      vertex -2 4.07164 8.29813
    endloop
  endfacet
  facet normal 0 0.707107 -0.707107
    outer loop
      vertex -4 4.07164 8.29813
      vertex -2 3.70187 7.92836
      vertex -4 3.70187 7.92836
    endloop
  endfacet
  facet normal 0 0.258819 -0.965926
    outer loop
      vertex -4 4.97394 8.81908
      vertex -2 5.47906 8.95442
      vertex -2 4.97394 8.81908
    endloop
  endfacet
  facet normal 0 0.258819 -0.965926
    outer loop
      vertex -2 5.47906 8.95442
      vertex -4 4.97394 8.81908
      vertex -4 5.47906 8.95442
    endloop
  endfacet
  facet normal 0 0.0871563 -0.996195
    outer loop
      vertex -4 5.47906 8.95442
      vertex -2 6 9
      vertex -2 5.47906 8.95442
    endloop
  endfacet
  facet normal 0 0.0871563 -0.996195
    outer loop
      vertex -2 6 9
      vertex -4 5.47906 8.95442
      vertex -4 6 9
    endloop
  endfacet
  facet normal 0 0.906308 -0.422618
    outer loop
      vertex -2 3.18092 7.02606
      vertex -4 3.40192 7.5
      vertex -2 3.40192 7.5
    endloop
  endfacet
  facet normal 0 0.906308 -0.422618
    outer loop
      vertex -4 3.40192 7.5
      vertex -2 3.18092 7.02606
      vertex -4 3.18092 7.02606
    endloop
  endfacet
  facet normal 0 0.819151 -0.573577
    outer loop
      vertex -2 3.40192 7.5
      vertex -4 3.70187 7.92836
      vertex -2 3.70187 7.92836
    endloop
  endfacet
  facet normal 0 0.819151 -0.573577
    outer loop
      vertex -4 3.70187 7.92836
      vertex -2 3.40192 7.5
      vertex -4 3.40192 7.5
    endloop
  endfacet
  facet normal 0 0.965926 -0.258819
    outer loop
      vertex -2 3.04558 6.52094
      vertex -4 3.18092 7.02606
      vertex -2 3.18092 7.02606
    endloop
  endfacet
  facet normal 0 0.965926 -0.258819
    outer loop
      vertex -4 3.18092 7.02606
      vertex -2 3.04558 6.52094
      vertex -4 3.04558 6.52094
    endloop
  endfacet
  facet normal 0 0.573577 -0.819152
    outer loop
      vertex -4 4.07164 8.29813
      vertex -2 4.5 8.59808
      vertex -2 4.07164 8.29813
    endloop
  endfacet
  facet normal 0 0.573577 -0.819152
    outer loop
      vertex -2 4.5 8.59808
      vertex -4 4.07164 8.29813
      vertex -4 4.5 8.59808
    endloop
  endfacet
  facet normal 0 0.422619 -0.906308
    outer loop
      vertex -4 4.5 8.59808
      vertex -2 4.97394 8.81908
      vertex -2 4.5 8.59808
    endloop
  endfacet
  facet normal 0 0.422619 -0.906308
    outer loop
      vertex -2 4.97394 8.81908
      vertex -4 4.5 8.59808
      vertex -4 4.97394 8.81908
    endloop
  endfacet
  facet normal 1 0 0
    outer loop
      vertex 39 38 8
      vertex 39 37.2 4
      vertex 39 38 4
    endloop
  endfacet
  facet normal 1 -0 0
    outer loop
      vertex 39 36 8
      vertex 39 37.2 4
      vertex 39 38 8
    endloop
  endfacet
  facet normal 1 0 0
    outer loop
      vertex 39 36 0
      vertex 39 37.2 4
      vertex 39 36 8
    endloop
  endfacet
  facet normal 1 0 0
    outer loop
      vertex 39 37.2 4
      vertex 39 36 0
      vertex 39 37.2 0
    endloop
  endfacet
  facet normal 0 0 -1
    outer loop
      vertex 39 36 8
      vertex 42 38 8
      vertex 42 36 8
    endloop
  endfacet
  facet normal -0 0 -1
    outer loop
      vertex 42 38 8
      vertex 39 36 8
      vertex 39 38 8
    endloop
  endfacet
  facet normal -1 0 0
    outer loop
      vertex 42 37.2 0
      vertex 42 36 0
      vertex 42 37.2 4
    endloop
  endfacet
  facet normal -1 0 0
    outer loop
      vertex 42 37.2 4
      vertex 42 38 8
      vertex 42 38 4
    endloop
  endfacet
  facet normal -1 0 0
    outer loop
      vertex 42 36 8
      vertex 42 37.2 4
      vertex 42 36 0
    endloop
  endfacet
  facet normal -1 0 0
    outer loop
      vertex 42 37.2 4
      vertex 42 36 8
      vertex 42 38 8
    endloop
  endfacet
  facet normal 0 -1 0
    outer loop
      vertex 39 37.2 0
      vertex 42 37.2 4
      vertex 39 37.2 4
    endloop
  endfacet
  facet normal 0 -1 -0
    outer loop
      vertex 42 37.2 4
      vertex 39 37.2 0
      vertex 42 37.2 0
    endloop
  endfacet
  facet normal -0 0 1
    outer loop
      vertex 39 38 4
      vertex 42 37.2 4
      vertex 42 38 4
    endloop
  endfacet
  facet normal 0 0 1
    outer loop
      vertex 42 37.2 4
      vertex 39 38 4
      vertex 39 37.2 4
    endloop
  endfacet
  facet normal 0 -1 0
    outer loop
      vertex 39 36 8
      vertex 56 36 12
      vertex -2 36 20
    endloop
  endfacet
  facet normal 0 -1 0
    outer loop
      vertex 56 36 12
      vertex 49.4791 36 8.95442
      vertex 50 36 9
    endloop
  endfacet
  facet normal 0 -1 0
    outer loop
      vertex 42 36 8
      vertex 56 36 12
      vertex 39 36 8
    endloop
  endfacet
  facet normal -0 -1 0
    outer loop
      vertex 48.9739 36 8.81908
      vertex 56 36 12
      vertex 42 36 8
    endloop
  endfacet
  facet normal 0 -1 0
    outer loop
      vertex 56 36 12
      vertex 48.9739 36 8.81908
      vertex 49.4791 36 8.95442
    endloop
  endfacet
  facet normal 0 -1 0
    outer loop
      vertex 48.9739 36 8.81908
      vertex 42 36 8
      vertex 48.5 36 8.59808
    endloop
  endfacet
  facet normal 0 -1 0
    outer loop
      vertex -2 36 0
      vertex 39 36 8
      vertex -2 36 20
    endloop
  endfacet
  facet normal 0 -1 -0
    outer loop
      vertex 39 36 8
      vertex -2 36 0
      vertex 39 36 0
    endloop
  endfacet
  facet normal 0 -1 0
    outer loop
      vertex 50.5209 36 8.95442
      vertex 56 36 12
      vertex 50 36 9
    endloop
  endfacet
  facet normal 0 -1 0
    outer loop
      vertex 51.0261 36 8.81908
      vertex 56 36 12
      vertex 50.5209 36 8.95442
    endloop
  endfacet
  facet normal 0 -1 0
    outer loop
      vertex 51.5 36 8.59808
      vertex 56 36 12
      vertex 51.0261 36 8.81908
    endloop
  endfacet
  facet normal 0 -1 0
    outer loop
      vertex 51.9284 36 8.29813
      vertex 56 36 12
      vertex 51.5 36 8.59808
    endloop
  endfacet
  facet normal 0 -1 0
    outer loop
      vertex 52.2981 36 7.92836
      vertex 56 36 12
      vertex 51.9284 36 8.29813
    endloop
  endfacet
  facet normal 0 -1 0
    outer loop
      vertex 52.5981 36 7.5
      vertex 56 36 12
      vertex 52.2981 36 7.92836
    endloop
  endfacet
  facet normal 0 -1 0
    outer loop
      vertex 52.8191 36 7.02606
      vertex 56 36 12
      vertex 52.5981 36 7.5
    endloop
  endfacet
  facet normal 0 -1 0
    outer loop
      vertex 52.9544 36 6.52094
      vertex 56 36 12
      vertex 52.8191 36 7.02606
    endloop
  endfacet
  facet normal 0 -1 0
    outer loop
      vertex 53 36 6
      vertex 56 36 12
      vertex 52.9544 36 6.52094
    endloop
  endfacet
  facet normal 0 -1 0
    outer loop
      vertex 56 36 0
      vertex 53 36 6
      vertex 52.9544 36 5.47906
    endloop
  endfacet
  facet normal 0 -1 0
    outer loop
      vertex 56 36 0
      vertex 52.9544 36 5.47906
      vertex 52.8191 36 4.97394
    endloop
  endfacet
  facet normal 0 -1 0
    outer loop
      vertex 56 36 0
      vertex 50 36 3
      vertex 42 36 0
    endloop
  endfacet
  facet normal 0 -1 0
    outer loop
      vertex 50 36 3
      vertex 56 36 0
      vertex 50.5209 36 3.04558
    endloop
  endfacet
  facet normal 0 -1 0
    outer loop
      vertex 53 36 6
      vertex 56 36 0
      vertex 56 36 12
    endloop
  endfacet
  facet normal 0 -1 0
    outer loop
      vertex 52.5981 36 4.5
      vertex 56 36 0
      vertex 52.8191 36 4.97394
    endloop
  endfacet
  facet normal 0 -1 0
    outer loop
      vertex 52.2981 36 4.07164
      vertex 56 36 0
      vertex 52.5981 36 4.5
    endloop
  endfacet
  facet normal 0 -1 0
    outer loop
      vertex 51.9284 36 3.70187
      vertex 56 36 0
      vertex 52.2981 36 4.07164
    endloop
  endfacet
  facet normal 0 -1 0
    outer loop
      vertex 51.5 36 3.40192
      vertex 56 36 0
      vertex 51.9284 36 3.70187
    endloop
  endfacet
  facet normal 0 -1 0
    outer loop
      vertex 51.0261 36 3.18092
      vertex 56 36 0
      vertex 51.5 36 3.40192
    endloop
  endfacet
  facet normal 0 -1 0
    outer loop
      vertex 50.5209 36 3.04558
      vertex 56 36 0
      vertex 51.0261 36 3.18092
    endloop
  endfacet
  facet normal 0 -1 0
    outer loop
      vertex 48.5 36 8.59808
      vertex 42 36 8
      vertex 48.0716 36 8.29813
    endloop
  endfacet
  facet normal 0 -1 0
    outer loop
      vertex 42 36 8
      vertex 47.7019 36 7.92836
      vertex 48.0716 36 8.29813
    endloop
  endfacet
  facet normal 0 -1 0
    outer loop
      vertex 42 36 8
      vertex 47.4019 36 7.5
      vertex 47.7019 36 7.92836
    endloop
  endfacet
  facet normal 0 -1 0
    outer loop
      vertex 42 36 8
      vertex 47.1809 36 7.02606
      vertex 47.4019 36 7.5
    endloop
  endfacet
  facet normal 0 -1 0
    outer loop
      vertex 42 36 8
      vertex 47.0456 36 6.52094
      vertex 47.1809 36 7.02606
    endloop
  endfacet
  facet normal 0 -1 0
    outer loop
      vertex 42 36 8
      vertex 47 36 6
      vertex 47.0456 36 6.52094
    endloop
  endfacet
  facet normal 0 -1 0
    outer loop
      vertex 42 36 8
      vertex 47.0456 36 5.47906
      vertex 47 36 6
    endloop
  endfacet
  facet normal 0 -1 0
    outer loop
      vertex 42 36 8
      vertex 47.1809 36 4.97394
      vertex 47.0456 36 5.47906
    endloop
  endfacet
  facet normal 0 -1 0
    outer loop
      vertex 42 36 0
      vertex 47.1809 36 4.97394
      vertex 42 36 8
    endloop
  endfacet
  facet normal 0 -1 -0
    outer loop
      vertex 47.1809 36 4.97394
      vertex 42 36 0
      vertex 47.4019 36 4.5
    endloop
  endfacet
  facet normal 0 -1 -0
    outer loop
      vertex 47.4019 36 4.5
      vertex 42 36 0
      vertex 47.7019 36 4.07164
    endloop
  endfacet
  facet normal 0 -1 -0
    outer loop
      vertex 49.4791 36 3.04558
      vertex 42 36 0
      vertex 50 36 3
    endloop
  endfacet
  facet normal 0 -1 -0
    outer loop
      vertex 48.9739 36 3.18092
      vertex 42 36 0
      vertex 49.4791 36 3.04558
    endloop
  endfacet
  facet normal 0 -1 -0
    outer loop
      vertex 48.5 36 3.40192
      vertex 42 36 0
      vertex 48.9739 36 3.18092
    endloop
  endfacet
  facet normal 0 -1 -0
    outer loop
      vertex 48.0716 36 3.70187
      vertex 42 36 0
      vertex 48.5 36 3.40192
    endloop
  endfacet
  facet normal 0 -1 -0
    outer loop
      vertex 47.7019 36 4.07164
      vertex 42 36 0
      vertex 48.0716 36 3.70187
    endloop
  endfacet
  facet normal 0.136637 0 0.990621
    outer loop
      vertex -2 38 20
      vertex 56 36 12
      vertex 56 38 12
    endloop
  endfacet
  facet normal 0.136637 0 0.990621
    outer loop
      vertex 56 36 12
      vertex -2 38 20
      vertex -2 36 20
    endloop
  endfacet
  facet normal 1 -0 0
    outer loop
      vertex 56 36 12
      vertex 56 38 0
      vertex 56 38 12
    endloop
  endfacet
  facet normal 1 0 0
    outer loop
      vertex 56 38 0
      vertex 56 36 12
      vertex 56 36 0
    endloop
  endfacet
  facet normal -0.996194 0 -0.0871583
    outer loop
      vertex 53 36 6
      vertex 52.9544 38 6.52094
      vertex 53 38 6
    endloop
  endfacet
  facet normal -0.996194 -0 -0.0871583
    outer loop
      vertex 52.9544 38 6.52094
      vertex 53 36 6
      vertex 52.9544 36 6.52094
    endloop
  endfacet
  facet normal -0.965926 0 -0.258819
    outer loop
      vertex 52.9544 36 6.52094
      vertex 52.8191 38 7.02606
      vertex 52.9544 38 6.52094
    endloop
  endfacet
  facet normal -0.965926 -0 -0.258819
    outer loop
      vertex 52.8191 38 7.02606
      vertex 52.9544 36 6.52094
      vertex 52.8191 36 7.02606
    endloop
  endfacet
  facet normal 0.0871566 0 -0.996195
    outer loop
      vertex 49.4791 36 8.95442
      vertex 50 38 9
      vertex 50 36 9
    endloop
  endfacet
  facet normal 0.0871566 0 -0.996195
    outer loop
      vertex 50 38 9
      vertex 49.4791 36 8.95442
      vertex 49.4791 38 8.95442
    endloop
  endfacet
  facet normal 0.819152 0 -0.573576
    outer loop
      vertex 47.7019 36 7.92836
      vertex 47.4019 38 7.5
      vertex 47.7019 38 7.92836
    endloop
  endfacet
  facet normal 0.819152 0 -0.573576
    outer loop
      vertex 47.4019 38 7.5
      vertex 47.7019 36 7.92836
      vertex 47.4019 36 7.5
    endloop
  endfacet
  facet normal -0.819153 0 0.573575
    outer loop
      vertex 52.2981 36 4.07164
      vertex 52.5981 38 4.5
      vertex 52.2981 38 4.07164
    endloop
  endfacet
  facet normal -0.819153 0 0.573575
    outer loop
      vertex 52.5981 38 4.5
      vertex 52.2981 36 4.07164
      vertex 52.5981 36 4.5
    endloop
  endfacet
  facet normal 0.819153 -0 0.573575
    outer loop
      vertex 47.4019 36 4.5
      vertex 47.7019 38 4.07164
      vertex 47.4019 38 4.5
    endloop
  endfacet
  facet normal 0.819153 0 0.573575
    outer loop
      vertex 47.7019 38 4.07164
      vertex 47.4019 36 4.5
      vertex 47.7019 36 4.07164
    endloop
  endfacet
  facet normal -0.965926 0 0.258819
    outer loop
      vertex 52.8191 36 4.97394
      vertex 52.9544 38 5.47906
      vertex 52.8191 38 4.97394
    endloop
  endfacet
  facet normal -0.965926 0 0.258819
    outer loop
      vertex 52.9544 38 5.47906
      vertex 52.8191 36 4.97394
      vertex 52.9544 36 5.47906
    endloop
  endfacet
  facet normal -0.906309 0 -0.422616
    outer loop
      vertex 52.8191 36 7.02606
      vertex 52.5981 38 7.5
      vertex 52.8191 38 7.02606
    endloop
  endfacet
  facet normal -0.906309 -0 -0.422616
    outer loop
      vertex 52.5981 38 7.5
      vertex 52.8191 36 7.02606
      vertex 52.5981 36 7.5
    endloop
  endfacet
  facet normal -0.258818 0 -0.965926
    outer loop
      vertex 50.5209 36 8.95442
      vertex 51.0261 38 8.81908
      vertex 51.0261 36 8.81908
    endloop
  endfacet
  facet normal -0.258818 0 -0.965926
    outer loop
      vertex 51.0261 38 8.81908
      vertex 50.5209 36 8.95442
      vertex 50.5209 38 8.95442
    endloop
  endfacet
  facet normal 0.422619 0 -0.906307
    outer loop
      vertex 48.5 36 8.59808
      vertex 48.9739 38 8.81908
      vertex 48.9739 36 8.81908
    endloop
  endfacet
  facet normal 0.422619 0 -0.906307
    outer loop
      vertex 48.9739 38 8.81908
      vertex 48.5 36 8.59808
      vertex 48.5 38 8.59808
    endloop
  endfacet
  facet normal 0.258818 0 -0.965926
    outer loop
      vertex 48.9739 36 8.81908
      vertex 49.4791 38 8.95442
      vertex 49.4791 36 8.95442
    endloop
  endfacet
  facet normal 0.258818 0 -0.965926
    outer loop
      vertex 49.4791 38 8.95442
      vertex 48.9739 36 8.81908
      vertex 48.9739 38 8.81908
    endloop
  endfacet
  facet normal -0.819152 0 -0.573576
    outer loop
      vertex 52.5981 36 7.5
      vertex 52.2981 38 7.92836
      vertex 52.5981 38 7.5
    endloop
  endfacet
  facet normal -0.819152 -0 -0.573576
    outer loop
      vertex 52.2981 38 7.92836
      vertex 52.5981 36 7.5
      vertex 52.2981 36 7.92836
    endloop
  endfacet
  facet normal -0.422619 0 -0.906307
    outer loop
      vertex 51.0261 36 8.81908
      vertex 51.5 38 8.59808
      vertex 51.5 36 8.59808
    endloop
  endfacet
  facet normal -0.422619 0 -0.906307
    outer loop
      vertex 51.5 38 8.59808
      vertex 51.0261 36 8.81908
      vertex 51.0261 38 8.81908
    endloop
  endfacet
  facet normal -0.906308 0 0.422617
    outer loop
      vertex 52.5981 36 4.5
      vertex 52.8191 38 4.97394
      vertex 52.5981 38 4.5
    endloop
  endfacet
  facet normal -0.906308 0 0.422617
    outer loop
      vertex 52.8191 38 4.97394
      vertex 52.5981 36 4.5
      vertex 52.8191 36 4.97394
    endloop
  endfacet
  facet normal 0.965926 -0 0.258819
    outer loop
      vertex 47.0456 36 5.47906
      vertex 47.1809 38 4.97394
      vertex 47.0456 38 5.47906
    endloop
  endfacet
  facet normal 0.965926 0 0.258819
    outer loop
      vertex 47.1809 38 4.97394
      vertex 47.0456 36 5.47906
      vertex 47.1809 36 4.97394
    endloop
  endfacet
  facet normal 0.906309 0 -0.422616
    outer loop
      vertex 47.4019 36 7.5
      vertex 47.1809 38 7.02606
      vertex 47.4019 38 7.5
    endloop
  endfacet
  facet normal 0.906309 0 -0.422616
    outer loop
      vertex 47.1809 38 7.02606
      vertex 47.4019 36 7.5
      vertex 47.1809 36 7.02606
    endloop
  endfacet
  facet normal -0.258818 0 0.965926
    outer loop
      vertex 50.5209 38 3.04558
      vertex 51.0261 36 3.18092
      vertex 51.0261 38 3.18092
    endloop
  endfacet
  facet normal -0.258818 0 0.965926
    outer loop
      vertex 51.0261 36 3.18092
      vertex 50.5209 38 3.04558
      vertex 50.5209 36 3.04558
    endloop
  endfacet
  facet normal -0.996194 0 0.0871581
    outer loop
      vertex 52.9544 36 5.47906
      vertex 53 38 6
      vertex 52.9544 38 5.47906
    endloop
  endfacet
  facet normal -0.996194 0 0.0871581
    outer loop
      vertex 53 38 6
      vertex 52.9544 36 5.47906
      vertex 53 36 6
    endloop
  endfacet
  facet normal 0.996194 0 -0.0871583
    outer loop
      vertex 47.0456 36 6.52094
      vertex 47 38 6
      vertex 47.0456 38 6.52094
    endloop
  endfacet
  facet normal 0.996194 0 -0.0871583
    outer loop
      vertex 47 38 6
      vertex 47.0456 36 6.52094
      vertex 47 36 6
    endloop
  endfacet
  facet normal 0.996194 -0 0.0871581
    outer loop
      vertex 47 36 6
      vertex 47.0456 38 5.47906
      vertex 47 38 6
    endloop
  endfacet
  facet normal 0.996194 0 0.0871581
    outer loop
      vertex 47.0456 38 5.47906
      vertex 47 36 6
      vertex 47.0456 36 5.47906
    endloop
  endfacet
  facet normal 0.573576 0 0.819153
    outer loop
      vertex 48.0716 38 3.70187
      vertex 48.5 36 3.40192
      vertex 48.5 38 3.40192
    endloop
  endfacet
  facet normal 0.573576 0 0.819153
    outer loop
      vertex 48.5 36 3.40192
      vertex 48.0716 38 3.70187
      vertex 48.0716 36 3.70187
    endloop
  endfacet
  facet normal -0.0871566 0 -0.996195
    outer loop
      vertex 50 36 9
      vertex 50.5209 38 8.95442
      vertex 50.5209 36 8.95442
    endloop
  endfacet
  facet normal -0.0871566 0 -0.996195
    outer loop
      vertex 50.5209 38 8.95442
      vertex 50 36 9
      vertex 50 38 9
    endloop
  endfacet
  facet normal 0.573576 0 -0.819153
    outer loop
      vertex 48.0716 36 8.29813
      vertex 48.5 38 8.59808
      vertex 48.5 36 8.59808
    endloop
  endfacet
  facet normal 0.573576 0 -0.819153
    outer loop
      vertex 48.5 38 8.59808
      vertex 48.0716 36 8.29813
      vertex 48.0716 38 8.29813
    endloop
  endfacet
  facet normal 0.258818 0 0.965926
    outer loop
      vertex 48.9739 38 3.18092
      vertex 49.4791 36 3.04558
      vertex 49.4791 38 3.04558
    endloop
  endfacet
  facet normal 0.258818 0 0.965926
    outer loop
      vertex 49.4791 36 3.04558
      vertex 48.9739 38 3.18092
      vertex 48.9739 36 3.18092
    endloop
  endfacet
  facet normal -0.573579 0 0.81915
    outer loop
      vertex 51.5 38 3.40192
      vertex 51.9284 36 3.70187
      vertex 51.9284 38 3.70187
    endloop
  endfacet
  facet normal -0.573579 0 0.81915
    outer loop
      vertex 51.9284 36 3.70187
      vertex 51.5 38 3.40192
      vertex 51.5 36 3.40192
    endloop
  endfacet
  facet normal -0.422619 0 0.906307
    outer loop
      vertex 51.0261 38 3.18092
      vertex 51.5 36 3.40192
      vertex 51.5 38 3.40192
    endloop
  endfacet
  facet normal -0.422619 0 0.906307
    outer loop
      vertex 51.5 36 3.40192
      vertex 51.0261 38 3.18092
      vertex 51.0261 36 3.18092
    endloop
  endfacet
  facet normal 0.965926 0 -0.258819
    outer loop
      vertex 47.1809 36 7.02606
      vertex 47.0456 38 6.52094
      vertex 47.1809 38 7.02606
    endloop
  endfacet
  facet normal 0.965926 0 -0.258819
    outer loop
      vertex 47.0456 38 6.52094
      vertex 47.1809 36 7.02606
      vertex 47.0456 36 6.52094
    endloop
  endfacet
  facet normal 0.906308 -0 0.422617
    outer loop
      vertex 47.1809 36 4.97394
      vertex 47.4019 38 4.5
      vertex 47.1809 38 4.97394
    endloop
  endfacet
  facet normal 0.906308 0 0.422617
    outer loop
      vertex 47.4019 38 4.5
      vertex 47.1809 36 4.97394
      vertex 47.4019 36 4.5
    endloop
  endfacet
  facet normal 0.422619 0 0.906307
    outer loop
      vertex 48.5 38 3.40192
      vertex 48.9739 36 3.18092
      vertex 48.9739 38 3.18092
    endloop
  endfacet
  facet normal 0.422619 0 0.906307
    outer loop
      vertex 48.9739 36 3.18092
      vertex 48.5 38 3.40192
      vertex 48.5 36 3.40192
    endloop
  endfacet
  facet normal -0.707104 0 -0.70711
    outer loop
      vertex 51.9284 36 8.29813
      vertex 52.2981 38 7.92836
      vertex 52.2981 36 7.92836
    endloop
  endfacet
  facet normal -0.707104 0 -0.70711
    outer loop
      vertex 52.2981 38 7.92836
      vertex 51.9284 36 8.29813
      vertex 51.9284 38 8.29813
    endloop
  endfacet
  facet normal -0.573579 0 -0.81915
    outer loop
      vertex 51.5 36 8.59808
      vertex 51.9284 38 8.29813
      vertex 51.9284 36 8.29813
    endloop
  endfacet
  facet normal -0.573579 0 -0.81915
    outer loop
      vertex 51.9284 38 8.29813
      vertex 51.5 36 8.59808
      vertex 51.5 38 8.59808
    endloop
  endfacet
  facet normal -0.707104 0 0.70711
    outer loop
      vertex 51.9284 38 3.70187
      vertex 52.2981 36 4.07164
      vertex 52.2981 38 4.07164
    endloop
  endfacet
  facet normal -0.707104 0 0.70711
    outer loop
      vertex 52.2981 36 4.07164
      vertex 51.9284 38 3.70187
      vertex 51.9284 36 3.70187
    endloop
  endfacet
  facet normal 0.707108 -0 0.707106
    outer loop
      vertex 47.7019 36 4.07164
      vertex 48.0716 38 3.70187
      vertex 47.7019 38 4.07164
    endloop
  endfacet
  facet normal 0.707108 0 0.707106
    outer loop
      vertex 48.0716 38 3.70187
      vertex 47.7019 36 4.07164
      vertex 48.0716 36 3.70187
    endloop
  endfacet
  facet normal 0.707108 0 -0.707106
    outer loop
      vertex 48.0716 36 8.29813
      vertex 47.7019 38 7.92836
      vertex 48.0716 38 8.29813
    endloop
  endfacet
  facet normal 0.707108 0 -0.707106
    outer loop
      vertex 47.7019 38 7.92836
      vertex 48.0716 36 8.29813
      vertex 47.7019 36 7.92836
    endloop
  endfacet
  facet normal 0.0871548 0 0.996195
    outer loop
      vertex 49.4791 38 3.04558
      vertex 50 36 3
      vertex 50 38 3
    endloop
  endfacet
  facet normal 0.0871548 0 0.996195
    outer loop
      vertex 50 36 3
      vertex 49.4791 38 3.04558
      vertex 49.4791 36 3.04558
    endloop
  endfacet
  facet normal -0.0871548 0 0.996195
    outer loop
      vertex 50 38 3
      vertex 50.5209 36 3.04558
      vertex 50.5209 38 3.04558
    endloop
  endfacet
  facet normal -0.0871548 0 0.996195
    outer loop
      vertex 50.5209 36 3.04558
      vertex 50 38 3
      vertex 50 36 3
    endloop
  endfacet
endsolid OpenSCAD_Model
